<svg width="468" height="402" viewBox="0 0 468 402" fill="none" xmlns="http://www.w3.org/2000/svg">
<rect width="468" height="402" rx="28" fill="url(#paint0_linear_1_86)"/>
<rect x="38" y="32" width="112" height="49" rx="24.5" fill="#F9FAFB"/>
<path d="M69.6761 52.9119H72.8778V62H74.1108V52.9119H77.3125V51.8182H69.6761V52.9119ZM82.8297 58.8778C82.8297 60.3097 81.736 60.9659 80.861 60.9659C79.8865 60.9659 79.1905 60.25 79.1905 59.1364V54.3636H78.0172V59.2159C78.0172 61.1648 79.0513 62.0994 80.4831 62.0994C81.6365 62.0994 82.3922 61.483 82.7502 60.7074H82.8297V62H84.003V54.3636H82.8297V58.8778ZM89.473 54.3636H87.8423V52.5341H86.669V54.3636H85.5156V55.358H86.669V60.1307C86.669 61.4631 87.7429 62.0994 88.7372 62.0994C89.1747 62.0994 89.4531 62.0199 89.6122 61.9602L89.3736 60.9062C89.2741 60.9261 89.1151 60.9659 88.8565 60.9659C88.3395 60.9659 87.8423 60.8068 87.8423 59.8125V55.358H89.473V54.3636ZM94.2582 62.1591C96.3263 62.1591 97.7184 60.5881 97.7184 58.2216C97.7184 55.8352 96.3263 54.2642 94.2582 54.2642C92.19 54.2642 90.7979 55.8352 90.7979 58.2216C90.7979 60.5881 92.19 62.1591 94.2582 62.1591ZM94.2582 61.1051C92.6871 61.1051 91.9712 59.7528 91.9712 58.2216C91.9712 56.6903 92.6871 55.3182 94.2582 55.3182C95.8292 55.3182 96.5451 56.6903 96.5451 58.2216C96.5451 59.7528 95.8292 61.1051 94.2582 61.1051ZM99.5094 62H100.683V57.1676C100.683 56.1335 101.498 55.3778 102.612 55.3778C102.925 55.3778 103.248 55.4375 103.328 55.4574V54.2642C103.193 54.2543 102.885 54.2443 102.711 54.2443C101.796 54.2443 101.001 54.7614 100.722 55.517H100.643V54.3636H99.5094V62ZM104.718 62H105.892V54.3636H104.718V62ZM105.315 53.0909C105.772 53.0909 106.15 52.733 106.15 52.2955C106.15 51.858 105.772 51.5 105.315 51.5C104.858 51.5 104.48 51.858 104.48 52.2955C104.48 52.733 104.858 53.0909 105.315 53.0909ZM110.288 62.179C111.62 62.179 112.316 61.4631 112.555 60.9659H112.615V62H113.788V56.9688C113.788 54.5426 111.938 54.2642 110.964 54.2642C109.811 54.2642 108.498 54.6619 107.901 56.054L109.015 56.4517C109.274 55.8949 109.885 55.2983 111.004 55.2983C112.083 55.2983 112.615 55.87 112.615 56.8494V56.8892C112.615 57.456 112.038 57.4062 110.646 57.5852C109.229 57.7692 107.683 58.0824 107.683 59.8324C107.683 61.3239 108.836 62.179 110.288 62.179ZM110.467 61.125C109.532 61.125 108.856 60.7074 108.856 59.892C108.856 58.9972 109.671 58.7188 110.586 58.5994C111.083 58.5398 112.416 58.4006 112.615 58.1619V59.2358C112.615 60.1903 111.859 61.125 110.467 61.125ZM117.103 51.8182H115.929V62H117.103V51.8182Z" fill="#CA8A04"/>
<circle cx="233.5" cy="161.5" r="73.5" fill="#F9FAFB"/>
<path d="M47.4261 326C47.0483 323.912 45.3778 322.679 43.3295 322.679C40.7244 322.679 38.8352 324.688 38.8352 327.909C38.8352 331.131 40.7244 333.139 43.3295 333.139C45.3778 333.139 47.0483 331.906 47.4261 329.818H46.1932C45.8949 331.23 44.6818 331.986 43.3295 331.986C41.4801 331.986 40.0284 330.554 40.0284 327.909C40.0284 325.264 41.4801 323.832 43.3295 323.832C44.6818 323.832 45.8949 324.588 46.1932 326H47.4261ZM49.2594 333H50.4327V328.168C50.4327 327.134 51.248 326.378 52.3617 326.378C52.6749 326.378 52.998 326.438 53.0776 326.457V325.264C52.9434 325.254 52.6351 325.244 52.4611 325.244C51.5463 325.244 50.7509 325.761 50.4725 326.517H50.3929V325.364H49.2594V333ZM57.4377 333.159C58.9888 333.159 60.1223 332.384 60.4803 331.23L59.3468 330.912C59.0485 331.707 58.3574 332.105 57.4377 332.105C56.0605 332.105 55.111 331.215 55.0563 329.58H60.5996V329.082C60.5996 326.239 58.9093 325.264 57.3184 325.264C55.2502 325.264 53.878 326.895 53.878 329.241C53.878 331.588 55.2303 333.159 57.4377 333.159ZM55.0563 328.565C55.1358 327.377 55.976 326.318 57.3184 326.318C58.5911 326.318 59.4064 327.273 59.4064 328.565H55.0563ZM64.6316 333.179C65.964 333.179 66.66 332.463 66.8986 331.966H66.9583V333H68.1316V327.969C68.1316 325.543 66.2821 325.264 65.3077 325.264C64.1543 325.264 62.8418 325.662 62.2452 327.054L63.3588 327.452C63.6174 326.895 64.2289 326.298 65.3475 326.298C66.4263 326.298 66.9583 326.87 66.9583 327.849V327.889C66.9583 328.456 66.3816 328.406 64.9895 328.585C63.5726 328.769 62.0265 329.082 62.0265 330.832C62.0265 332.324 63.1799 333.179 64.6316 333.179ZM64.8105 332.125C63.8759 332.125 63.1998 331.707 63.1998 330.892C63.1998 329.997 64.0151 329.719 64.9299 329.599C65.427 329.54 66.7594 329.401 66.9583 329.162V330.236C66.9583 331.19 66.2026 332.125 64.8105 332.125ZM73.5941 325.364H71.9634V323.534H70.7901V325.364H69.6367V326.358H70.7901V331.131C70.7901 332.463 71.864 333.099 72.8583 333.099C73.2958 333.099 73.5742 333.02 73.7333 332.96L73.4947 331.906C73.3952 331.926 73.2362 331.966 72.9776 331.966C72.4606 331.966 71.9634 331.807 71.9634 330.812V326.358H73.5941V325.364ZM78.4787 333.159C80.0298 333.159 81.1634 332.384 81.5213 331.23L80.3878 330.912C80.0895 331.707 79.3984 332.105 78.4787 332.105C77.1016 332.105 76.152 331.215 76.0973 329.58H81.6406V329.082C81.6406 326.239 79.9503 325.264 78.3594 325.264C76.2912 325.264 74.919 326.895 74.919 329.241C74.919 331.588 76.2713 333.159 78.4787 333.159ZM76.0973 328.565C76.1768 327.377 77.017 326.318 78.3594 326.318C79.6321 326.318 80.4474 327.273 80.4474 328.565H76.0973ZM89.6101 333.179C90.9425 333.179 91.6385 332.463 91.8771 331.966H91.9368V333H93.1101V327.969C93.1101 325.543 91.2607 325.264 90.2862 325.264C89.1328 325.264 87.8203 325.662 87.2237 327.054L88.3374 327.452C88.5959 326.895 89.2074 326.298 90.326 326.298C91.4048 326.298 91.9368 326.87 91.9368 327.849V327.889C91.9368 328.456 91.3601 328.406 89.968 328.585C88.5511 328.769 87.005 329.082 87.005 330.832C87.005 332.324 88.1584 333.179 89.6101 333.179ZM89.7891 332.125C88.8544 332.125 88.1783 331.707 88.1783 330.892C88.1783 329.997 88.9936 329.719 89.9084 329.599C90.4055 329.54 91.7379 329.401 91.9368 329.162V330.236C91.9368 331.19 91.1811 332.125 89.7891 332.125ZM96.4249 328.406C96.4249 327.074 97.2502 326.318 98.3738 326.318C99.4625 326.318 100.124 327.029 100.124 328.227V333H101.297V328.148C101.297 326.199 100.258 325.264 98.7118 325.264C97.5584 325.264 96.8425 325.781 96.4846 326.557H96.3851V325.364H95.2516V333H96.4249V328.406ZM103.923 335.864C104.982 335.864 105.728 335.302 106.17 334.114L109.422 325.384L108.139 325.364L106.031 331.449H105.952L103.844 325.364H102.571L105.395 333.04L105.176 333.636C104.749 334.8 104.222 334.909 103.366 334.69L103.068 335.724C103.188 335.784 103.526 335.864 103.923 335.864ZM118.014 333.159C119.704 333.159 120.818 332.125 121.017 330.773H119.844C119.625 331.608 118.929 332.105 118.014 332.105C116.622 332.105 115.727 330.952 115.727 329.182C115.727 327.452 116.642 326.318 118.014 326.318C119.048 326.318 119.665 326.955 119.844 327.651H121.017C120.818 326.219 119.605 325.264 117.994 325.264C115.926 325.264 114.554 326.895 114.554 329.222C114.554 331.509 115.866 333.159 118.014 333.159ZM125.834 333.159C127.903 333.159 129.295 331.588 129.295 329.222C129.295 326.835 127.903 325.264 125.834 325.264C123.766 325.264 122.374 326.835 122.374 329.222C122.374 331.588 123.766 333.159 125.834 333.159ZM125.834 332.105C124.263 332.105 123.547 330.753 123.547 329.222C123.547 327.69 124.263 326.318 125.834 326.318C127.405 326.318 128.121 327.69 128.121 329.222C128.121 330.753 127.405 332.105 125.834 332.105ZM132.259 322.818H131.086V333H132.259V322.818ZM135.581 322.818H134.408V333H135.581V322.818ZM140.932 333.159C142.483 333.159 143.616 332.384 143.974 331.23L142.841 330.912C142.543 331.707 141.852 332.105 140.932 332.105C139.555 332.105 138.605 331.215 138.55 329.58H144.094V329.082C144.094 326.239 142.403 325.264 140.812 325.264C138.744 325.264 137.372 326.895 137.372 329.241C137.372 331.588 138.724 333.159 140.932 333.159ZM138.55 328.565C138.63 327.377 139.47 326.318 140.812 326.318C142.085 326.318 142.901 327.273 142.901 328.565H138.55ZM148.981 333.159C150.671 333.159 151.785 332.125 151.984 330.773H150.81C150.592 331.608 149.896 332.105 148.981 332.105C147.589 332.105 146.694 330.952 146.694 329.182C146.694 327.452 147.609 326.318 148.981 326.318C150.015 326.318 150.631 326.955 150.81 327.651H151.984C151.785 326.219 150.572 325.264 148.961 325.264C146.893 325.264 145.521 326.895 145.521 329.222C145.521 331.509 146.833 333.159 148.981 333.159ZM157.02 325.364H155.389V323.534H154.216V325.364H153.062V326.358H154.216V331.131C154.216 332.463 155.29 333.099 156.284 333.099C156.722 333.099 157 333.02 157.159 332.96L156.92 331.906C156.821 331.926 156.662 331.966 156.403 331.966C155.886 331.966 155.389 331.807 155.389 330.812V326.358H157.02V325.364ZM158.785 333H159.958V325.364H158.785V333ZM159.381 324.091C159.839 324.091 160.217 323.733 160.217 323.295C160.217 322.858 159.839 322.5 159.381 322.5C158.924 322.5 158.546 322.858 158.546 323.295C158.546 323.733 158.924 324.091 159.381 324.091ZM165.209 333.159C167.278 333.159 168.67 331.588 168.67 329.222C168.67 326.835 167.278 325.264 165.209 325.264C163.141 325.264 161.749 326.835 161.749 329.222C161.749 331.588 163.141 333.159 165.209 333.159ZM165.209 332.105C163.638 332.105 162.922 330.753 162.922 329.222C162.922 327.69 163.638 326.318 165.209 326.318C166.78 326.318 167.496 327.69 167.496 329.222C167.496 330.753 166.78 332.105 165.209 332.105ZM171.634 328.406C171.634 327.074 172.459 326.318 173.583 326.318C174.672 326.318 175.333 327.029 175.333 328.227V333H176.506V328.148C176.506 326.199 175.467 325.264 173.921 325.264C172.767 325.264 172.051 325.781 171.694 326.557H171.594V325.364H170.461V333H171.634V328.406ZM185.69 333.159C187.758 333.159 189.15 331.588 189.15 329.222C189.15 326.835 187.758 325.264 185.69 325.264C183.622 325.264 182.23 326.835 182.23 329.222C182.23 331.588 183.622 333.159 185.69 333.159ZM185.69 332.105C184.119 332.105 183.403 330.753 183.403 329.222C183.403 327.69 184.119 326.318 185.69 326.318C187.261 326.318 187.977 327.69 187.977 329.222C187.977 330.753 187.261 332.105 185.69 332.105ZM194.342 325.364H192.631V324.588C192.631 323.832 192.95 323.435 193.725 323.435C194.063 323.435 194.262 323.514 194.381 323.554L194.719 322.54C194.54 322.46 194.183 322.341 193.606 322.341C192.512 322.341 191.458 322.997 191.458 324.31V325.364H190.225V326.358H191.458V333H192.631V326.358H194.342V325.364ZM199.923 333H201.097V325.364H199.923V333ZM200.52 324.091C200.977 324.091 201.355 323.733 201.355 323.295C201.355 322.858 200.977 322.5 200.52 322.5C200.063 322.5 199.685 322.858 199.685 323.295C199.685 323.733 200.063 324.091 200.52 324.091ZM206.567 325.364H204.936V323.534H203.763V325.364H202.609V326.358H203.763V331.131C203.763 332.463 204.837 333.099 205.831 333.099C206.268 333.099 206.547 333.02 206.706 332.96L206.467 331.906C206.368 331.926 206.209 331.966 205.95 331.966C205.433 331.966 204.936 331.807 204.936 330.812V326.358H206.567V325.364ZM211.451 333.159C213.002 333.159 214.136 332.384 214.494 331.23L213.36 330.912C213.062 331.707 212.371 332.105 211.451 332.105C210.074 332.105 209.125 331.215 209.07 329.58H214.613V329.082C214.613 326.239 212.923 325.264 211.332 325.264C209.264 325.264 207.892 326.895 207.892 329.241C207.892 331.588 209.244 333.159 211.451 333.159ZM209.07 328.565C209.15 327.377 209.99 326.318 211.332 326.318C212.605 326.318 213.42 327.273 213.42 328.565H209.07ZM216.398 333H217.571V328.227C217.571 327.109 218.387 326.318 219.301 326.318C220.191 326.318 220.813 326.9 220.813 327.77V333H222.006V328.028C222.006 327.044 222.623 326.318 223.696 326.318C224.532 326.318 225.248 326.761 225.248 327.889V333H226.421V327.889C226.421 326.094 225.456 325.264 224.094 325.264C223 325.264 222.2 325.766 221.807 326.557H221.728C221.35 325.741 220.684 325.264 219.679 325.264C218.685 325.264 217.949 325.741 217.631 326.557H217.532V325.364H216.398V333ZM233.975 327.074C233.607 325.99 232.782 325.264 231.271 325.264C229.66 325.264 228.467 326.179 228.467 327.472C228.467 328.526 229.093 329.232 230.495 329.56L231.768 329.858C232.538 330.037 232.901 330.405 232.901 330.932C232.901 331.588 232.205 332.125 231.112 332.125C230.152 332.125 229.55 331.712 229.342 330.892L228.228 331.17C228.501 332.468 229.57 333.159 231.131 333.159C232.906 333.159 234.114 332.19 234.114 330.872C234.114 329.808 233.448 329.137 232.086 328.804L230.952 328.526C230.048 328.302 229.64 327.999 229.64 327.412C229.64 326.756 230.336 326.278 231.271 326.278C232.295 326.278 232.717 326.845 232.921 327.372L233.975 327.074ZM236.736 333.08C237.228 333.08 237.631 332.677 237.631 332.185C237.631 331.692 237.228 331.29 236.736 331.29C236.243 331.29 235.841 331.692 235.841 332.185C235.841 332.677 236.243 333.08 236.736 333.08ZM243.833 333H245.066V328.446H249.48V327.352H245.066V323.912H249.938V322.818H243.833V333ZM254.432 333.159C256.5 333.159 257.892 331.588 257.892 329.222C257.892 326.835 256.5 325.264 254.432 325.264C252.364 325.264 250.972 326.835 250.972 329.222C250.972 331.588 252.364 333.159 254.432 333.159ZM254.432 332.105C252.861 332.105 252.145 330.753 252.145 329.222C252.145 327.69 252.861 326.318 254.432 326.318C256.003 326.318 256.719 327.69 256.719 329.222C256.719 330.753 256.003 332.105 254.432 332.105ZM259.683 333H260.857V328.168C260.857 327.134 261.672 326.378 262.786 326.378C263.099 326.378 263.422 326.438 263.501 326.457V325.264C263.367 325.254 263.059 325.244 262.885 325.244C261.97 325.244 261.175 325.761 260.896 326.517H260.817V325.364H259.683V333ZM272.031 333.159C273.583 333.159 274.716 332.384 275.074 331.23L273.941 330.912C273.642 331.707 272.951 332.105 272.031 332.105C270.654 332.105 269.705 331.215 269.65 329.58H275.193V329.082C275.193 326.239 273.503 325.264 271.912 325.264C269.844 325.264 268.472 326.895 268.472 329.241C268.472 331.588 269.824 333.159 272.031 333.159ZM269.65 328.565C269.73 327.377 270.57 326.318 271.912 326.318C273.185 326.318 274 327.273 274 328.565H269.65ZM277.648 325.364H276.296L278.722 329.182L276.296 333H277.648L279.478 330.037L281.307 333H282.659L280.194 329.182L282.659 325.364H281.307L279.478 328.486L277.648 325.364ZM286.581 333.179C287.913 333.179 288.609 332.463 288.848 331.966H288.907V333H290.081V327.969C290.081 325.543 288.231 325.264 287.257 325.264C286.104 325.264 284.791 325.662 284.194 327.054L285.308 327.452C285.567 326.895 286.178 326.298 287.297 326.298C288.376 326.298 288.907 326.87 288.907 327.849V327.889C288.907 328.456 288.331 328.406 286.939 328.585C285.522 328.769 283.976 329.082 283.976 330.832C283.976 332.324 285.129 333.179 286.581 333.179ZM286.76 332.125C285.825 332.125 285.149 331.707 285.149 330.892C285.149 329.997 285.964 329.719 286.879 329.599C287.376 329.54 288.709 329.401 288.907 329.162V330.236C288.907 331.19 288.152 332.125 286.76 332.125ZM292.222 333H293.396V328.227C293.396 327.109 294.211 326.318 295.126 326.318C296.016 326.318 296.637 326.9 296.637 327.77V333H297.83V328.028C297.83 327.044 298.447 326.318 299.521 326.318C300.356 326.318 301.072 326.761 301.072 327.889V333H302.245V327.889C302.245 326.094 301.281 325.264 299.918 325.264C298.825 325.264 298.024 325.766 297.631 326.557H297.552C297.174 325.741 296.508 325.264 295.504 325.264C294.509 325.264 293.773 325.741 293.455 326.557H293.356V325.364H292.222V333ZM304.39 335.864H305.564V331.827H305.663C305.922 332.244 306.419 333.159 307.89 333.159C309.799 333.159 311.132 331.628 311.132 329.202C311.132 326.795 309.799 325.264 307.87 325.264C306.379 325.264 305.922 326.179 305.663 326.577H305.524V325.364H304.39V335.864ZM305.544 329.182C305.544 327.472 306.299 326.318 307.731 326.318C309.223 326.318 309.958 327.571 309.958 329.182C309.958 330.812 309.203 332.105 307.731 332.105C306.319 332.105 305.544 330.912 305.544 329.182ZM314.095 322.818H312.922V333H314.095V322.818ZM319.445 333.159C320.997 333.159 322.13 332.384 322.488 331.23L321.355 330.912C321.056 331.707 320.365 332.105 319.445 332.105C318.068 332.105 317.119 331.215 317.064 329.58H322.607V329.082C322.607 326.239 320.917 325.264 319.326 325.264C317.258 325.264 315.886 326.895 315.886 329.241C315.886 331.588 317.238 333.159 319.445 333.159ZM317.064 328.565C317.144 327.377 317.984 326.318 319.326 326.318C320.599 326.318 321.414 327.273 321.414 328.565H317.064ZM326.142 331.608H324.869L324.81 332.165C324.666 333.512 324.382 334.854 324.253 335.486H325.148C325.387 334.81 325.894 333.278 326.063 332.145L326.142 331.608ZM334.501 333.179C335.833 333.179 336.529 332.463 336.768 331.966H336.827V333H338.001V327.969C338.001 325.543 336.151 325.264 335.177 325.264C334.023 325.264 332.711 325.662 332.114 327.054L333.228 327.452C333.487 326.895 334.098 326.298 335.217 326.298C336.295 326.298 336.827 326.87 336.827 327.849V327.889C336.827 328.456 336.251 328.406 334.859 328.585C333.442 328.769 331.896 329.082 331.896 330.832C331.896 332.324 333.049 333.179 334.501 333.179ZM334.68 332.125C333.745 332.125 333.069 331.707 333.069 330.892C333.069 329.997 333.884 329.719 334.799 329.599C335.296 329.54 336.629 329.401 336.827 329.162V330.236C336.827 331.19 336.072 332.125 334.68 332.125ZM349.489 327.074C349.121 325.99 348.296 325.264 346.784 325.264C345.173 325.264 343.98 326.179 343.98 327.472C343.98 328.526 344.607 329.232 346.009 329.56L347.281 329.858C348.052 330.037 348.415 330.405 348.415 330.932C348.415 331.588 347.719 332.125 346.625 332.125C345.666 332.125 345.064 331.712 344.855 330.892L343.742 331.17C344.015 332.468 345.084 333.159 346.645 333.159C348.42 333.159 349.628 332.19 349.628 330.872C349.628 329.808 348.962 329.137 347.6 328.804L346.466 328.526C345.561 328.302 345.154 327.999 345.154 327.412C345.154 326.756 345.85 326.278 346.784 326.278C347.808 326.278 348.231 326.845 348.435 327.372L349.489 327.074ZM354.596 333.159C356.147 333.159 357.281 332.384 357.638 331.23L356.505 330.912C356.207 331.707 355.516 332.105 354.596 332.105C353.219 332.105 352.269 331.215 352.214 329.58H357.758V329.082C357.758 326.239 356.067 325.264 354.477 325.264C352.408 325.264 351.036 326.895 351.036 329.241C351.036 331.588 352.388 333.159 354.596 333.159ZM352.214 328.565C352.294 327.377 353.134 326.318 354.477 326.318C355.749 326.318 356.565 327.273 356.565 328.565H352.214ZM360.716 322.818H359.543V333H360.716V322.818ZM366.067 333.159C367.618 333.159 368.751 332.384 369.109 331.23L367.976 330.912C367.677 331.707 366.986 332.105 366.067 332.105C364.689 332.105 363.74 331.215 363.685 329.58H369.229V329.082C369.229 326.239 367.538 325.264 365.947 325.264C363.879 325.264 362.507 326.895 362.507 329.241C362.507 331.588 363.859 333.159 366.067 333.159ZM363.685 328.565C363.765 327.377 364.605 326.318 365.947 326.318C367.22 326.318 368.035 327.273 368.035 328.565H363.685ZM374.116 333.159C375.806 333.159 376.92 332.125 377.118 330.773H375.945C375.726 331.608 375.03 332.105 374.116 332.105C372.724 332.105 371.829 330.952 371.829 329.182C371.829 327.452 372.743 326.318 374.116 326.318C375.15 326.318 375.766 326.955 375.945 327.651H377.118C376.92 326.219 375.706 325.264 374.096 325.264C372.028 325.264 370.655 326.895 370.655 329.222C370.655 331.509 371.968 333.159 374.116 333.159ZM382.155 325.364H380.524V323.534H379.351V325.364H378.197V326.358H379.351V331.131C379.351 332.463 380.425 333.099 381.419 333.099C381.856 333.099 382.135 333.02 382.294 332.96L382.055 331.906C381.956 331.926 381.797 331.966 381.538 331.966C381.021 331.966 380.524 331.807 380.524 330.812V326.358H382.155V325.364ZM383.92 333H385.093V325.364H383.92V333ZM384.516 324.091C384.974 324.091 385.351 323.733 385.351 323.295C385.351 322.858 384.974 322.5 384.516 322.5C384.059 322.5 383.681 322.858 383.681 323.295C383.681 323.733 384.059 324.091 384.516 324.091ZM390.344 333.159C392.412 333.159 393.804 331.588 393.804 329.222C393.804 326.835 392.412 325.264 390.344 325.264C388.276 325.264 386.884 326.835 386.884 329.222C386.884 331.588 388.276 333.159 390.344 333.159ZM390.344 332.105C388.773 332.105 388.057 330.753 388.057 329.222C388.057 327.69 388.773 326.318 390.344 326.318C391.915 326.318 392.631 327.69 392.631 329.222C392.631 330.753 391.915 332.105 390.344 332.105ZM396.769 328.406C396.769 327.074 397.594 326.318 398.718 326.318C399.806 326.318 400.468 327.029 400.468 328.227V333H401.641V328.148C401.641 326.199 400.602 325.264 399.056 325.264C397.902 325.264 397.186 325.781 396.828 326.557H396.729V325.364H395.595V333H396.769V328.406ZM410.825 333.159C412.893 333.159 414.285 331.588 414.285 329.222C414.285 326.835 412.893 325.264 410.825 325.264C408.756 325.264 407.364 326.835 407.364 329.222C407.364 331.588 408.756 333.159 410.825 333.159ZM410.825 332.105C409.254 332.105 408.538 330.753 408.538 329.222C408.538 327.69 409.254 326.318 410.825 326.318C412.396 326.318 413.112 327.69 413.112 329.222C413.112 330.753 412.396 332.105 410.825 332.105ZM419.476 325.364H417.766V324.588C417.766 323.832 418.084 323.435 418.86 323.435C419.198 323.435 419.397 323.514 419.516 323.554L419.854 322.54C419.675 322.46 419.317 322.341 418.741 322.341C417.647 322.341 416.593 322.997 416.593 324.31V325.364H415.36V326.358H416.593V333H417.766V326.358H419.476V325.364ZM39.0739 357H40.2472V352.168C40.2472 351.134 41.0625 350.378 42.1761 350.378C42.4893 350.378 42.8125 350.438 42.892 350.457V349.264C42.7578 349.254 42.4496 349.244 42.2756 349.244C41.3608 349.244 40.5653 349.761 40.2869 350.517H40.2074V349.364H39.0739V357ZM47.2521 357.159C48.8033 357.159 49.9368 356.384 50.2947 355.23L49.1612 354.912C48.8629 355.707 48.1719 356.105 47.2521 356.105C45.875 356.105 44.9254 355.215 44.8707 353.58H50.4141V353.082C50.4141 350.239 48.7237 349.264 47.1328 349.264C45.0646 349.264 43.6925 350.895 43.6925 353.241C43.6925 355.588 45.0447 357.159 47.2521 357.159ZM44.8707 352.565C44.9503 351.377 45.7905 350.318 47.1328 350.318C48.4055 350.318 49.2209 351.273 49.2209 352.565H44.8707ZM55.0824 357.159C56.554 357.159 57.0511 356.244 57.3097 355.827H57.4489V357H58.5824V346.818H57.4091V350.577H57.3097C57.0511 350.179 56.5938 349.264 55.1023 349.264C53.1733 349.264 51.8409 350.795 51.8409 353.202C51.8409 355.628 53.1733 357.159 55.0824 357.159ZM55.2415 356.105C53.7699 356.105 53.0142 354.812 53.0142 353.182C53.0142 351.571 53.75 350.318 55.2415 350.318C56.6733 350.318 57.429 351.472 57.429 353.182C57.429 354.912 56.6534 356.105 55.2415 356.105ZM64.8317 349.364V357.557C64.8317 358.332 64.5135 358.77 63.7976 358.77H63.5788V359.864H63.8175C65.2891 359.864 66.005 358.969 66.005 357.557V349.364H64.8317ZM65.4084 348.091C65.8658 348.091 66.2436 347.733 66.2436 347.295C66.2436 346.858 65.8658 346.5 65.4084 346.5C64.951 346.5 64.5732 346.858 64.5732 347.295C64.5732 347.733 64.951 348.091 65.4084 348.091ZM70.4011 357.179C71.7335 357.179 72.4295 356.463 72.6681 355.966H72.7278V357H73.9011V351.969C73.9011 349.543 72.0517 349.264 71.0772 349.264C69.9238 349.264 68.6113 349.662 68.0147 351.054L69.1284 351.452C69.3869 350.895 69.9984 350.298 71.117 350.298C72.1958 350.298 72.7278 350.87 72.7278 351.849V351.889C72.7278 352.456 72.1511 352.406 70.7591 352.585C69.3422 352.769 67.796 353.082 67.796 354.832C67.796 356.324 68.9494 357.179 70.4011 357.179ZM70.5801 356.125C69.6454 356.125 68.9693 355.707 68.9693 354.892C68.9693 353.997 69.7846 353.719 70.6994 353.599C71.1966 353.54 72.5289 353.401 72.7278 353.162V354.236C72.7278 355.19 71.9721 356.125 70.5801 356.125ZM79.1449 357.159C80.8352 357.159 81.9489 356.125 82.1477 354.773H80.9744C80.7557 355.608 80.0597 356.105 79.1449 356.105C77.7528 356.105 76.858 354.952 76.858 353.182C76.858 351.452 77.7727 350.318 79.1449 350.318C80.179 350.318 80.7955 350.955 80.9744 351.651H82.1477C81.9489 350.219 80.7358 349.264 79.125 349.264C77.0568 349.264 75.6847 350.895 75.6847 353.222C75.6847 355.509 76.9972 357.159 79.1449 357.159ZM83.8629 357H85.0362V354.141L85.8565 353.381L88.7152 357H90.2067L86.7415 352.625L89.968 349.364H88.5163L85.1754 352.764H85.0362V346.818H83.8629V357ZM94.3654 357.159C95.9165 357.159 97.0501 356.384 97.408 355.23L96.2745 354.912C95.9762 355.707 95.2852 356.105 94.3654 356.105C92.9883 356.105 92.0387 355.215 91.984 353.58H97.5273V353.082C97.5273 350.239 95.837 349.264 94.2461 349.264C92.1779 349.264 90.8058 350.895 90.8058 353.241C90.8058 355.588 92.158 357.159 94.3654 357.159ZM91.984 352.565C92.0636 351.377 92.9038 350.318 94.2461 350.318C95.5188 350.318 96.3342 351.273 96.3342 352.565H91.984ZM102.633 349.364H101.002V347.534H99.8292V349.364H98.6758V350.358H99.8292V355.131C99.8292 356.463 100.903 357.099 101.897 357.099C102.335 357.099 102.613 357.02 102.772 356.96L102.534 355.906C102.434 355.926 102.275 355.966 102.017 355.966C101.5 355.966 101.002 355.807 101.002 354.812V350.358H102.633V349.364ZM109.67 351.074C109.303 349.99 108.477 349.264 106.966 349.264C105.355 349.264 104.162 350.179 104.162 351.472C104.162 352.526 104.788 353.232 106.19 353.56L107.463 353.858C108.234 354.037 108.597 354.405 108.597 354.932C108.597 355.588 107.901 356.125 106.807 356.125C105.847 356.125 105.246 355.712 105.037 354.892L103.923 355.17C104.197 356.468 105.266 357.159 106.827 357.159C108.602 357.159 109.81 356.19 109.81 354.872C109.81 353.808 109.143 353.137 107.781 352.804L106.648 352.526C105.743 352.302 105.335 351.999 105.335 351.412C105.335 350.756 106.031 350.278 106.966 350.278C107.99 350.278 108.413 350.845 108.616 351.372L109.67 351.074ZM118.616 357.159C120.684 357.159 122.076 355.588 122.076 353.222C122.076 350.835 120.684 349.264 118.616 349.264C116.547 349.264 115.155 350.835 115.155 353.222C115.155 355.588 116.547 357.159 118.616 357.159ZM118.616 356.105C117.045 356.105 116.329 354.753 116.329 353.222C116.329 351.69 117.045 350.318 118.616 350.318C120.187 350.318 120.903 351.69 120.903 353.222C120.903 354.753 120.187 356.105 118.616 356.105ZM123.867 357H125.04V352.168C125.04 351.134 125.855 350.378 126.969 350.378C127.282 350.378 127.605 350.438 127.685 350.457V349.264C127.551 349.254 127.243 349.244 127.069 349.244C126.154 349.244 125.358 349.761 125.08 350.517H125V349.364H123.867V357ZM134.743 357H135.897L137.567 351.134H137.687L139.357 357H140.51L142.837 349.364H141.604L139.954 355.19H139.874L138.263 349.364H137.01L135.38 355.21H135.3L133.65 349.364H132.417L134.743 357ZM145.562 352.406C145.562 351.074 146.412 350.318 147.57 350.318C148.674 350.318 149.34 351.014 149.34 352.227V357H150.513V352.148C150.513 350.184 149.469 349.264 147.908 349.264C146.705 349.264 146.019 349.766 145.661 350.557H145.562V346.818H144.388V357H145.562V352.406ZM154.907 357.179C156.239 357.179 156.935 356.463 157.174 355.966H157.234V357H158.407V351.969C158.407 349.543 156.558 349.264 155.583 349.264C154.43 349.264 153.117 349.662 152.521 351.054L153.634 351.452C153.893 350.895 154.504 350.298 155.623 350.298C156.702 350.298 157.234 350.87 157.234 351.849V351.889C157.234 352.456 156.657 352.406 155.265 352.585C153.848 352.769 152.302 353.082 152.302 354.832C152.302 356.324 153.455 357.179 154.907 357.179ZM155.086 356.125C154.151 356.125 153.475 355.707 153.475 354.892C153.475 353.997 154.29 353.719 155.205 353.599C155.702 353.54 157.035 353.401 157.234 353.162V354.236C157.234 355.19 156.478 356.125 155.086 356.125ZM163.869 349.364H162.239V347.534H161.066V349.364H159.912V350.358H161.066V355.131C161.066 356.463 162.139 357.099 163.134 357.099C163.571 357.099 163.85 357.02 164.009 356.96L163.77 355.906C163.671 355.926 163.512 355.966 163.253 355.966C162.736 355.966 162.239 355.807 162.239 354.812V350.358H163.869V349.364ZM168.754 357.159C170.305 357.159 171.439 356.384 171.797 355.23L170.663 354.912C170.365 355.707 169.674 356.105 168.754 356.105C167.377 356.105 166.427 355.215 166.373 353.58H171.916V353.082C171.916 350.239 170.226 349.264 168.635 349.264C166.567 349.264 165.194 350.895 165.194 353.241C165.194 355.588 166.547 357.159 168.754 357.159ZM166.373 352.565C166.452 351.377 167.292 350.318 168.635 350.318C169.907 350.318 170.723 351.273 170.723 352.565H166.373ZM179.713 349.364H178.44L176.332 355.449H176.252L174.145 349.364H172.872L175.696 357H176.889L179.713 349.364ZM184.19 357.159C185.741 357.159 186.874 356.384 187.232 355.23L186.099 354.912C185.8 355.707 185.109 356.105 184.19 356.105C182.812 356.105 181.863 355.215 181.808 353.58H187.352V353.082C187.352 350.239 185.661 349.264 184.07 349.264C182.002 349.264 180.63 350.895 180.63 353.241C180.63 355.588 181.982 357.159 184.19 357.159ZM181.808 352.565C181.888 351.377 182.728 350.318 184.07 350.318C185.343 350.318 186.158 351.273 186.158 352.565H181.808ZM189.136 357H190.31V352.168C190.31 351.134 191.125 350.378 192.239 350.378C192.552 350.378 192.875 350.438 192.955 350.457V349.264C192.82 349.254 192.512 349.244 192.338 349.244C191.423 349.244 190.628 349.761 190.349 350.517H190.27V349.364H189.136V357ZM199.039 359.864C200.097 359.864 200.843 359.302 201.286 358.114L204.537 349.384L203.254 349.364L201.146 355.449H201.067L198.959 349.364H197.686L200.51 357.04L200.291 357.636C199.864 358.8 199.337 358.909 198.482 358.69L198.183 359.724C198.303 359.784 198.641 359.864 199.039 359.864ZM208.918 357.159C210.987 357.159 212.379 355.588 212.379 353.222C212.379 350.835 210.987 349.264 208.918 349.264C206.85 349.264 205.458 350.835 205.458 353.222C205.458 355.588 206.85 357.159 208.918 357.159ZM208.918 356.105C207.347 356.105 206.631 354.753 206.631 353.222C206.631 351.69 207.347 350.318 208.918 350.318C210.489 350.318 211.205 351.69 211.205 353.222C211.205 354.753 210.489 356.105 208.918 356.105ZM218.982 353.878C218.982 355.31 217.888 355.966 217.013 355.966C216.039 355.966 215.343 355.25 215.343 354.136V349.364H214.17V354.216C214.17 356.165 215.204 357.099 216.635 357.099C217.789 357.099 218.545 356.483 218.903 355.707H218.982V357H220.155V349.364H218.982V353.878ZM223.159 357.08C223.652 357.08 224.054 356.677 224.054 356.185C224.054 355.692 223.652 355.29 223.159 355.29C222.667 355.29 222.265 355.692 222.265 356.185C222.265 356.677 222.667 357.08 223.159 357.08ZM227.015 357.08C227.507 357.08 227.91 356.677 227.91 356.185C227.91 355.692 227.507 355.29 227.015 355.29C226.523 355.29 226.12 355.692 226.12 356.185C226.12 356.677 226.523 357.08 227.015 357.08ZM230.87 357.08C231.363 357.08 231.765 356.677 231.765 356.185C231.765 355.692 231.363 355.29 230.87 355.29C230.378 355.29 229.975 355.692 229.975 356.185C229.975 356.677 230.378 357.08 230.87 357.08ZM238.226 352.705C238.226 355.21 238.902 357.298 240.115 359.068H241.149C240.195 357.756 239.439 355.071 239.439 352.705C239.439 350.338 240.195 347.653 241.149 346.341H240.115C238.902 348.111 238.226 350.199 238.226 352.705ZM312.679 352.705C312.679 350.199 312.003 348.111 310.79 346.341H309.756C310.71 347.653 311.466 350.338 311.466 352.705C311.466 355.071 310.71 357.756 309.756 359.068H310.79C312.003 357.298 312.679 355.21 312.679 352.705Z" fill="#B49467"/>
<path d="M242.881 357H244.054V352.168C244.054 351.134 244.869 350.378 245.983 350.378C246.296 350.378 246.619 350.438 246.699 350.457V349.264C246.564 349.254 246.256 349.244 246.082 349.244C245.167 349.244 244.372 349.761 244.094 350.517H244.014V349.364H242.881V357ZM251.059 357.159C252.61 357.159 253.743 356.384 254.101 355.23L252.968 354.912C252.67 355.707 251.979 356.105 251.059 356.105C249.682 356.105 248.732 355.215 248.677 353.58H254.221V353.082C254.221 350.239 252.53 349.264 250.939 349.264C248.871 349.264 247.499 350.895 247.499 353.241C247.499 355.588 248.851 357.159 251.059 357.159ZM248.677 352.565C248.757 351.377 249.597 350.318 250.939 350.318C252.212 350.318 253.028 351.273 253.028 352.565H248.677ZM258.253 357.179C259.585 357.179 260.281 356.463 260.52 355.966H260.579V357H261.753V351.969C261.753 349.543 259.903 349.264 258.929 349.264C257.775 349.264 256.463 349.662 255.866 351.054L256.98 351.452C257.238 350.895 257.85 350.298 258.969 350.298C260.047 350.298 260.579 350.87 260.579 351.849V351.889C260.579 352.456 260.003 352.406 258.611 352.585C257.194 352.769 255.648 353.082 255.648 354.832C255.648 356.324 256.801 357.179 258.253 357.179ZM258.432 356.125C257.497 356.125 256.821 355.707 256.821 354.892C256.821 353.997 257.636 353.719 258.551 353.599C259.048 353.54 260.381 353.401 260.579 353.162V354.236C260.579 355.19 259.824 356.125 258.432 356.125ZM266.778 357.159C268.249 357.159 268.746 356.244 269.005 355.827H269.144V357H270.278V346.818H269.104V350.577H269.005C268.746 350.179 268.289 349.264 266.798 349.264C264.869 349.264 263.536 350.795 263.536 353.202C263.536 355.628 264.869 357.159 266.778 357.159ZM266.937 356.105C265.465 356.105 264.71 354.812 264.71 353.182C264.71 351.571 265.445 350.318 266.937 350.318C268.369 350.318 269.124 351.472 269.124 353.182C269.124 354.912 268.349 356.105 266.937 356.105ZM276.527 357H277.7V352.227C277.7 351.109 278.516 350.318 279.43 350.318C280.32 350.318 280.942 350.9 280.942 351.77V357H282.135V352.028C282.135 351.044 282.751 350.318 283.825 350.318C284.661 350.318 285.376 350.761 285.376 351.889V357H286.55V351.889C286.55 350.094 285.585 349.264 284.223 349.264C283.129 349.264 282.329 349.766 281.936 350.557H281.857C281.479 349.741 280.812 349.264 279.808 349.264C278.814 349.264 278.078 349.741 277.76 350.557H277.661V349.364H276.527V357ZM291.797 357.159C293.865 357.159 295.257 355.588 295.257 353.222C295.257 350.835 293.865 349.264 291.797 349.264C289.729 349.264 288.337 350.835 288.337 353.222C288.337 355.588 289.729 357.159 291.797 357.159ZM291.797 356.105C290.226 356.105 289.51 354.753 289.51 353.222C289.51 351.69 290.226 350.318 291.797 350.318C293.368 350.318 294.084 351.69 294.084 353.222C294.084 354.753 293.368 356.105 291.797 356.105ZM297.048 357H298.222V352.168C298.222 351.134 299.037 350.378 300.151 350.378C300.464 350.378 300.787 350.438 300.867 350.457V349.264C300.732 349.254 300.424 349.244 300.25 349.244C299.335 349.244 298.54 349.761 298.262 350.517H298.182V349.364H297.048V357ZM305.227 357.159C306.778 357.159 307.911 356.384 308.269 355.23L307.136 354.912C306.838 355.707 306.146 356.105 305.227 356.105C303.85 356.105 302.9 355.215 302.845 353.58H308.389V353.082C308.389 350.239 306.698 349.264 305.107 349.264C303.039 349.264 301.667 350.895 301.667 353.241C301.667 355.588 303.019 357.159 305.227 357.159ZM302.845 352.565C302.925 351.377 303.765 350.318 305.107 350.318C306.38 350.318 307.195 351.273 307.195 352.565H302.845Z" fill="#0078FF"/>
<path d="M40.0085 293H43.6974V285.543H47.456L51.4531 293H55.5696L51.1648 284.926C53.5611 283.962 54.8239 281.913 54.8239 279.149C54.8239 275.261 52.3182 272.636 47.6449 272.636H40.0085V293ZM43.6974 282.48V275.719H47.0781C49.8324 275.719 51.0653 276.982 51.0653 279.149C51.0653 281.317 49.8324 282.48 47.098 282.48H43.6974ZM64.603 293.298C68.1626 293.298 70.6087 291.558 71.245 288.903L67.8842 288.526C67.397 289.818 66.2038 290.494 64.6527 290.494C62.326 290.494 60.7848 288.963 60.755 286.348H71.3942V285.244C71.3942 279.885 68.1726 277.528 64.4141 277.528C60.0391 277.528 57.1854 280.74 57.1854 285.453C57.1854 290.246 59.9993 293.298 64.603 293.298ZM60.7649 283.922C60.8743 281.973 62.3161 280.332 64.4638 280.332C66.532 280.332 67.924 281.844 67.9439 283.922H60.7649ZM78.8342 293.308C81.2305 293.308 82.6623 292.185 83.3185 290.902H83.4379V293H86.8981V282.778C86.8981 278.741 83.6069 277.528 80.6935 277.528C77.4819 277.528 75.016 278.96 74.2205 281.744L77.5813 282.222C77.9393 281.178 78.9535 280.283 80.7134 280.283C82.3839 280.283 83.2987 281.138 83.2987 282.639V282.699C83.2987 283.733 82.2148 283.783 79.5202 284.071C76.5572 284.389 73.7234 285.274 73.7234 288.714C73.7234 291.717 75.9208 293.308 78.8342 293.308ZM79.7688 290.663C78.2674 290.663 77.1935 289.977 77.1935 288.655C77.1935 287.273 78.3967 286.696 80.0075 286.467C80.9521 286.338 82.8413 286.099 83.3086 285.722V287.521C83.3086 289.222 81.9364 290.663 79.7688 290.663ZM96.185 293.268C98.81 293.268 99.9933 291.707 100.56 290.594H100.779V293H104.319V272.636H100.709V280.253H100.56C100.013 279.149 98.8896 277.528 96.195 277.528C92.6651 277.528 89.891 280.293 89.891 285.384C89.891 290.415 92.5856 293.268 96.185 293.268ZM97.1893 290.315C94.8129 290.315 93.56 288.227 93.56 285.364C93.56 282.52 94.793 280.482 97.1893 280.482C99.506 280.482 100.779 282.401 100.779 285.364C100.779 288.327 99.4862 290.315 97.1893 290.315ZM110.391 298.727C113.195 298.727 114.816 297.286 115.681 294.849L121.816 277.747L117.968 277.727L114.438 289.261H114.279L110.759 277.727H106.941L112.479 293.318L112.171 294.143C111.505 295.884 110.451 296.003 108.88 295.545L108.045 298.349C108.532 298.548 109.407 298.727 110.391 298.727ZM138.886 277.727H135.873V274.068H132.274V277.727H130.106V280.511H132.274V289.003C132.254 291.876 134.342 293.288 137.047 293.209C138.071 293.179 138.777 292.98 139.164 292.851L138.558 290.037C138.359 290.087 137.951 290.176 137.504 290.176C136.599 290.176 135.873 289.858 135.873 288.406V280.511H138.886V277.727ZM148.394 293.298C152.869 293.298 155.712 290.146 155.712 285.423C155.712 280.69 152.869 277.528 148.394 277.528C143.92 277.528 141.076 280.69 141.076 285.423C141.076 290.146 143.92 293.298 148.394 293.298ZM148.414 290.415C145.938 290.415 144.725 288.207 144.725 285.413C144.725 282.619 145.938 280.382 148.414 280.382C150.85 280.382 152.063 282.619 152.063 285.413C152.063 288.207 150.85 290.415 148.414 290.415ZM176.939 278.234H180.488C180.419 274.794 177.485 272.358 173.15 272.358C168.875 272.358 165.663 274.764 165.673 278.364C165.673 281.287 167.751 282.967 171.102 283.832L173.419 284.429C175.616 284.986 177.068 285.672 177.078 287.253C177.068 288.993 175.417 290.156 173.011 290.156C170.704 290.156 168.914 289.122 168.765 286.984H165.136C165.285 291.031 168.298 293.308 173.041 293.308C177.923 293.308 180.757 290.872 180.767 287.283C180.757 283.753 177.843 282.142 174.781 281.416L172.872 280.939C171.201 280.541 169.392 279.835 169.412 278.135C169.422 276.604 170.794 275.48 173.1 275.48C175.298 275.48 176.75 276.504 176.939 278.234ZM187.048 293H190.807L193.67 282.679H193.879L196.743 293H200.491L204.817 277.727H201.138L198.493 288.406H198.344L195.599 277.727H191.97L189.226 288.466H189.087L186.402 277.727H182.733L187.048 293ZM207.33 293H210.929V277.727H207.33V293ZM209.14 275.56C210.283 275.56 211.218 274.685 211.218 273.611C211.218 272.527 210.283 271.652 209.14 271.652C207.986 271.652 207.051 272.527 207.051 273.611C207.051 274.685 207.986 275.56 209.14 275.56ZM222.257 277.727H219.244V274.068H215.645V277.727H213.477V280.511H215.645V289.003C215.625 291.876 217.713 293.288 220.418 293.209C221.442 293.179 222.148 292.98 222.536 292.851L221.929 290.037C221.73 290.087 221.322 290.176 220.875 290.176C219.97 290.176 219.244 289.858 219.244 288.406V280.511H222.257V277.727ZM231.765 293.298C235.603 293.298 238.049 291.021 238.308 287.78H234.868C234.559 289.42 233.376 290.365 231.795 290.365C229.548 290.365 228.096 288.486 228.096 285.364C228.096 282.281 229.578 280.432 231.795 280.432C233.525 280.432 234.589 281.545 234.868 283.017H238.308C238.059 279.706 235.474 277.528 231.745 277.528C227.271 277.528 224.447 280.76 224.447 285.423C224.447 290.047 227.201 293.298 231.765 293.298ZM244.863 284.051C244.863 281.844 246.235 280.571 248.164 280.571C250.053 280.571 251.167 281.774 251.167 283.832V293H254.766V283.276C254.766 279.587 252.678 277.528 249.506 277.528C247.16 277.528 245.668 278.592 244.962 280.322H244.783V272.636H241.263V293H244.863V284.051ZM261.876 287.014H265.187V286.756C265.207 284.648 265.893 283.683 267.513 282.689C269.343 281.595 270.487 280.104 270.487 277.827C270.487 274.466 267.871 272.358 264.073 272.358C260.593 272.358 257.769 274.287 257.67 278.065H261.21C261.299 276.196 262.651 275.301 264.053 275.301C265.575 275.301 266.798 276.315 266.798 277.876C266.798 279.268 265.873 280.223 264.67 280.979C262.91 282.072 261.896 283.176 261.876 286.756V287.014ZM263.616 293.219C264.789 293.219 265.793 292.244 265.803 291.031C265.793 289.838 264.789 288.864 263.616 288.864C262.403 288.864 261.418 289.838 261.428 291.031C261.418 292.244 262.403 293.219 263.616 293.219ZM284.459 272.636H280.77V293H284.459V272.636ZM295.921 277.727H292.908V274.068H289.309V277.727H287.141V280.511H289.309V289.003C289.289 291.876 291.377 293.288 294.082 293.209C295.106 293.179 295.812 292.98 296.2 292.851L295.593 290.037C295.394 290.087 294.987 290.176 294.539 290.176C293.634 290.176 292.908 289.858 292.908 288.406V280.511H295.921V277.727ZM301.417 272.636H298.673V280.134H301.417V272.636ZM316.963 281.764C316.466 279.179 314.398 277.528 310.819 277.528C307.14 277.528 304.634 279.338 304.644 282.162C304.634 284.389 306.006 285.861 308.939 286.467L311.544 287.014C312.946 287.322 313.603 287.889 313.603 288.754C313.603 289.798 312.469 290.584 310.759 290.584C309.108 290.584 308.034 289.868 307.726 288.496L304.216 288.834C304.664 291.638 307.02 293.298 310.769 293.298C314.587 293.298 317.282 291.32 317.292 288.426C317.282 286.249 315.88 284.916 312.996 284.29L310.391 283.733C308.84 283.385 308.223 282.848 308.233 281.963C308.223 280.929 309.367 280.213 310.868 280.213C312.529 280.213 313.404 281.118 313.682 282.122L316.963 281.764ZM339.276 281.764C338.779 279.179 336.711 277.528 333.131 277.528C329.452 277.528 326.946 279.338 326.956 282.162C326.946 284.389 328.319 285.861 331.252 286.467L333.857 287.014C335.259 287.322 335.915 287.889 335.915 288.754C335.915 289.798 334.782 290.584 333.071 290.584C331.421 290.584 330.347 289.868 330.039 288.496L326.529 288.834C326.976 291.638 329.333 293.298 333.081 293.298C336.9 293.298 339.594 291.32 339.604 288.426C339.594 286.249 338.192 284.916 335.309 284.29L332.703 283.733C331.152 283.385 330.536 282.848 330.546 281.963C330.536 280.929 331.679 280.213 333.181 280.213C334.841 280.213 335.716 281.118 335.995 282.122L339.276 281.764ZM342.572 293H346.172V277.727H342.572V293ZM344.382 275.56C345.525 275.56 346.46 274.685 346.46 273.611C346.46 272.527 345.525 271.652 344.382 271.652C343.228 271.652 342.294 272.527 342.294 273.611C342.294 274.685 343.228 275.56 344.382 275.56ZM349.873 293H353.472V283.713C353.472 281.834 354.725 280.561 356.276 280.561C357.798 280.561 358.842 281.585 358.842 283.156V293H362.371V283.474C362.371 281.754 363.396 280.561 365.136 280.561C366.587 280.561 367.741 281.416 367.741 283.305V293H371.35V282.749C371.35 279.338 369.381 277.528 366.577 277.528C364.36 277.528 362.67 278.622 361.994 280.322H361.835C361.248 278.592 359.766 277.528 357.708 277.528C355.66 277.528 354.129 278.582 353.492 280.322H353.313V277.727H349.873V293ZM375.002 298.727H378.601V290.594H378.75C379.317 291.707 380.5 293.268 383.125 293.268C386.725 293.268 389.419 290.415 389.419 285.384C389.419 280.293 386.645 277.528 383.115 277.528C380.421 277.528 379.297 279.149 378.75 280.253H378.542V277.727H375.002V298.727ZM378.532 285.364C378.532 282.401 379.804 280.482 382.121 280.482C384.517 280.482 385.75 282.52 385.75 285.364C385.75 288.227 384.498 290.315 382.121 290.315C379.824 290.315 378.532 288.327 378.532 285.364ZM396.101 272.636H392.502V293H396.101V272.636ZM406.564 293.298C410.124 293.298 412.57 291.558 413.206 288.903L409.845 288.526C409.358 289.818 408.165 290.494 406.614 290.494C404.287 290.494 402.746 288.963 402.716 286.348H413.355V285.244C413.355 279.885 410.134 277.528 406.375 277.528C402 277.528 399.146 280.74 399.146 285.453C399.146 290.246 401.96 293.298 406.564 293.298ZM402.726 283.922C402.835 281.973 404.277 280.332 406.425 280.332C408.493 280.332 409.885 281.844 409.905 283.922H402.726ZM418.618 293.219C419.791 293.219 420.795 292.244 420.805 291.031C420.795 289.838 419.791 288.864 418.618 288.864C417.404 288.864 416.42 289.838 416.43 291.031C416.42 292.244 417.404 293.219 418.618 293.219Z" fill="#111827"/>
<path d="M240.899 145.561C240.819 146.061 240.779 146.561 240.779 147.061C240.779 151.561 244.419 155.199 248.899 155.199C249.399 155.199 249.879 155.141 250.379 155.061V171.199C250.379 177.981 246.379 182.001 239.579 182.001H224.801C217.999 182.001 213.999 177.981 213.999 171.199V156.401C213.999 149.601 217.999 145.561 224.801 145.561H240.899ZM241.301 157.721C240.759 157.661 240.221 157.901 239.899 158.341L235.061 164.601L229.519 160.241C229.179 159.981 228.779 159.879 228.379 159.921C227.981 159.981 227.621 160.199 227.379 160.519L221.461 168.221L221.339 168.401C220.999 169.039 221.159 169.859 221.759 170.301C222.039 170.481 222.339 170.601 222.679 170.601C223.141 170.621 223.579 170.379 223.859 170.001L228.879 163.539L234.579 167.821L234.759 167.939C235.399 168.279 236.199 168.121 236.659 167.519L242.439 160.061L242.359 160.101C242.679 159.661 242.739 159.101 242.519 158.601C242.301 158.101 241.819 157.761 241.301 157.721ZM249.18 142C251.84 142 254 144.16 254 146.82C254 149.48 251.84 151.64 249.18 151.64C246.52 151.64 244.36 149.48 244.36 146.82C244.36 144.16 246.52 142 249.18 142Z" fill="#FACC15"/>
<defs>
<linearGradient id="paint0_linear_1_86" x1="18" y1="15.5" x2="443" y2="390.5" gradientUnits="userSpaceOnUse">
<stop stop-color="#FEF9C3"/>
<stop offset="1" stop-color="#FEF08A"/>
</linearGradient>
</defs>
</svg>
