<svg width="456" height="402" viewBox="0 0 456 402" fill="none" xmlns="http://www.w3.org/2000/svg">
<rect width="456" height="402" rx="28" fill="url(#paint0_linear_1_64)"/>
<rect x="44" y="32" width="140" height="49" rx="24.5" fill="#F9FAFB"/>
<path d="M75.6761 52.9119H78.8778V62H80.1108V52.9119H83.3125V51.8182H75.6761V52.9119ZM85.0563 62H86.2296V54.3636H85.0563V62ZM85.6529 53.0909C86.1103 53.0909 86.4881 52.733 86.4881 52.2955C86.4881 51.858 86.1103 51.5 85.6529 51.5C85.1955 51.5 84.8176 51.858 84.8176 52.2955C84.8176 52.733 85.1955 53.0909 85.6529 53.0909ZM88.3786 64.8636H89.5518V60.8267H89.6513C89.9098 61.2443 90.407 62.1591 91.8786 62.1591C93.7876 62.1591 95.12 60.6278 95.12 58.2017C95.12 55.7955 93.7876 54.2642 91.8587 54.2642C90.3672 54.2642 89.9098 55.179 89.6513 55.5767H89.5121V54.3636H88.3786V64.8636ZM89.532 58.1818C89.532 56.4716 90.2876 55.3182 91.7195 55.3182C93.2109 55.3182 93.9467 56.571 93.9467 58.1818C93.9467 59.8125 93.1911 61.1051 91.7195 61.1051C90.3075 61.1051 89.532 59.9119 89.532 58.1818ZM102.319 56.0739C101.951 54.9901 101.126 54.2642 99.6143 54.2642C98.0036 54.2642 96.8104 55.179 96.8104 56.4716C96.8104 57.5256 97.4368 58.2315 98.8388 58.5597L100.112 58.858C100.882 59.0369 101.245 59.4048 101.245 59.9318C101.245 60.5881 100.549 61.125 99.4553 61.125C98.4957 61.125 97.8942 60.7124 97.6854 59.892L96.5717 60.1705C96.8452 61.468 97.9141 62.1591 99.4751 62.1591C101.25 62.1591 102.458 61.1896 102.458 59.8722C102.458 58.8082 101.792 58.1371 100.43 57.804L99.2962 57.5256C98.3913 57.3018 97.9837 56.9986 97.9837 56.4119C97.9837 55.7557 98.6797 55.2784 99.6143 55.2784C100.638 55.2784 101.061 55.8452 101.265 56.3722L102.319 56.0739ZM111.045 62.1392C111.98 62.1392 113.024 61.8111 113.685 61.1349L114.406 62H115.818L114.411 60.2848C114.794 59.7926 115.221 58.9673 115.221 57.5455H114.088C114.088 58.2415 113.929 58.858 113.665 59.37L111.453 56.6705L112.199 56.1136C113.034 55.4972 113.551 54.821 113.551 53.8466C113.551 52.7131 112.616 51.7188 111.085 51.7188C109.594 51.7188 108.619 52.6534 108.619 54.0256C108.619 54.9304 109.111 55.6264 109.812 56.4716C108.624 57.2969 107.804 58.0625 107.804 59.2955C107.804 60.946 109.037 62.1392 111.045 62.1392ZM112.984 60.2848C112.422 60.8118 111.711 61.1051 111.006 61.1051C109.792 61.1051 108.997 60.25 108.997 59.2955C108.997 59.017 109.256 58.3011 110.17 57.625L110.548 57.3466L112.984 60.2848ZM110.732 55.7955C110.235 55.1889 109.812 54.6122 109.812 54.0455C109.812 53.4091 110.349 52.733 111.125 52.733C111.861 52.733 112.358 53.3295 112.358 53.8466C112.358 54.5426 111.98 54.9205 111.403 55.2983L110.732 55.7955ZM120.657 52.9119H123.858V62H125.091V52.9119H128.293V51.8182H120.657V52.9119ZM129.244 62H130.417V57.1676C130.417 56.1335 131.232 55.3778 132.346 55.3778C132.659 55.3778 132.982 55.4375 133.062 55.4574V54.2642C132.928 54.2543 132.619 54.2443 132.445 54.2443C131.531 54.2443 130.735 54.7614 130.457 55.517H130.377V54.3636H129.244V62ZM134.453 62H135.626V54.3636H134.453V62ZM135.049 53.0909C135.507 53.0909 135.885 52.733 135.885 52.2955C135.885 51.858 135.507 51.5 135.049 51.5C134.592 51.5 134.214 51.858 134.214 52.2955C134.214 52.733 134.592 53.0909 135.049 53.0909ZM140.877 62.1591C142.568 62.1591 143.681 61.125 143.88 59.7727H142.707C142.488 60.608 141.792 61.1051 140.877 61.1051C139.485 61.1051 138.59 59.9517 138.59 58.1818C138.59 56.4517 139.505 55.3182 140.877 55.3182C141.911 55.3182 142.528 55.9545 142.707 56.6506H143.88C143.681 55.2188 142.468 54.2642 140.857 54.2642C138.789 54.2642 137.417 55.8949 137.417 58.2216C137.417 60.5085 138.73 62.1591 140.877 62.1591ZM145.595 62H146.769V59.1413L147.589 58.3807L150.448 62H151.939L148.474 57.625L151.7 54.3636H150.249L146.908 57.7642H146.769V51.8182H145.595V62Z" fill="#FB923C"/>
<circle cx="236.5" cy="161.5" r="66.5" fill="#F9FAFB"/>
<circle cx="344.5" cy="184.5" r="38.5" fill="#F9FAFB"/>
<circle cx="128.5" cy="184.5" r="38.5" fill="#F9FAFB"/>
<path d="M245.68 141C252.46 141 257 145.758 257 152.838V169.178C257 176.24 252.46 181 245.68 181H228.34C221.56 181 217 176.24 217 169.178V152.838C217 145.758 221.56 141 228.34 141H245.68ZM236.3 150.838C235.48 150.838 234.8 151.52 234.8 152.338V162.44C234.8 162.96 235.08 163.46 235.54 163.72L243.38 168.4C243.62 168.56 243.9 168.62 244.16 168.62C244.66 168.62 245.16 168.36 245.44 167.88C245.88 167.178 245.64 166.258 244.92 165.82L237.8 161.58V152.338C237.8 151.52 237.14 150.838 236.3 150.838Z" fill="#FDBA74"/>
<path d="M350.063 173.333C354.018 173.333 356.667 176.109 356.667 180.239V189.771C356.667 193.89 354.018 196.667 350.063 196.667H339.948C335.993 196.667 333.333 193.89 333.333 189.771V180.239C333.333 176.109 335.993 173.333 339.948 173.333H350.063ZM344.592 179.072C344.113 179.072 343.717 179.47 343.717 179.947V185.84C343.717 186.143 343.88 186.435 344.148 186.587L348.722 189.317C348.862 189.41 349.025 189.445 349.177 189.445C349.468 189.445 349.76 189.293 349.923 189.013C350.18 188.604 350.04 188.067 349.62 187.812L345.467 185.338V179.947C345.467 179.47 345.082 179.072 344.592 179.072Z" fill="#FDBA74"/>
<path d="M134.063 173.333C138.018 173.333 140.667 176.109 140.667 180.239V189.771C140.667 193.89 138.018 196.667 134.063 196.667H123.948C119.993 196.667 117.333 193.89 117.333 189.771V180.239C117.333 176.109 119.993 173.333 123.948 173.333H134.063ZM128.592 179.072C128.113 179.072 127.717 179.47 127.717 179.947V185.84C127.717 186.143 127.88 186.435 128.148 186.587L132.722 189.317C132.862 189.41 133.025 189.445 133.177 189.445C133.468 189.445 133.76 189.293 133.923 189.013C134.18 188.604 134.04 188.067 133.62 187.812L129.467 185.338V179.947C129.467 179.47 129.082 179.072 128.592 179.072Z" fill="#FDBA74"/>
<path d="M45.233 333H51.1989V331.906H46.4659V322.818H45.233V333ZM56.1506 333.159C57.7017 333.159 58.8352 332.384 59.1932 331.23L58.0597 330.912C57.7614 331.707 57.0703 332.105 56.1506 332.105C54.7734 332.105 53.8239 331.215 53.7692 329.58H59.3125V329.082C59.3125 326.239 57.6222 325.264 56.0312 325.264C53.9631 325.264 52.5909 326.895 52.5909 329.241C52.5909 331.588 53.9432 333.159 56.1506 333.159ZM53.7692 328.565C53.8487 327.377 54.6889 326.318 56.0312 326.318C57.304 326.318 58.1193 327.273 58.1193 328.565H53.7692ZM63.3445 333.179C64.6768 333.179 65.3729 332.463 65.6115 331.966H65.6712V333H66.8445V327.969C66.8445 325.543 64.995 325.264 64.0206 325.264C62.8672 325.264 61.5547 325.662 60.9581 327.054L62.0717 327.452C62.3303 326.895 62.9418 326.298 64.0604 326.298C65.1392 326.298 65.6712 326.87 65.6712 327.849V327.889C65.6712 328.456 65.0945 328.406 63.7024 328.585C62.2855 328.769 60.7393 329.082 60.7393 330.832C60.7393 332.324 61.8928 333.179 63.3445 333.179ZM63.5234 332.125C62.5888 332.125 61.9126 331.707 61.9126 330.892C61.9126 329.997 62.728 329.719 63.6428 329.599C64.1399 329.54 65.4723 329.401 65.6712 329.162V330.236C65.6712 331.19 64.9155 332.125 63.5234 332.125ZM68.986 333H70.1593V328.168C70.1593 327.134 70.9746 326.378 72.0882 326.378C72.4015 326.378 72.7246 326.438 72.8042 326.457V325.264C72.6699 325.254 72.3617 325.244 72.1877 325.244C71.2729 325.244 70.4775 325.761 70.199 326.517H70.1195V325.364H68.986V333ZM75.3683 328.406C75.3683 327.074 76.1935 326.318 77.3171 326.318C78.4059 326.318 79.0671 327.029 79.0671 328.227V333H80.2404V328.148C80.2404 326.199 79.2013 325.264 77.6552 325.264C76.5018 325.264 75.7859 325.781 75.4279 326.557H75.3285V325.364H74.195V333H75.3683V328.406ZM87.4952 328.406C87.4952 327.074 88.3453 326.318 89.5037 326.318C90.6074 326.318 91.2736 327.014 91.2736 328.227V333H92.4469V328.148C92.4469 326.184 91.4029 325.264 89.8418 325.264C88.6387 325.264 87.9526 325.766 87.5946 326.557H87.4952V322.818H86.3219V333H87.4952V328.406ZM97.6957 333.159C99.7638 333.159 101.156 331.588 101.156 329.222C101.156 326.835 99.7638 325.264 97.6957 325.264C95.6275 325.264 94.2354 326.835 94.2354 329.222C94.2354 331.588 95.6275 333.159 97.6957 333.159ZM97.6957 332.105C96.1246 332.105 95.4087 330.753 95.4087 329.222C95.4087 327.69 96.1246 326.318 97.6957 326.318C99.2667 326.318 99.9826 327.69 99.9826 329.222C99.9826 330.753 99.2667 332.105 97.6957 332.105ZM104.417 333H105.571L107.241 327.134H107.36L109.031 333H110.184L112.511 325.364H111.278L109.627 331.19H109.548L107.937 325.364H106.684L105.054 331.21H104.974L103.324 325.364H102.091L104.417 333ZM121.321 325.364H119.69V323.534H118.517V325.364H117.363V326.358H118.517V331.131C118.517 332.463 119.591 333.099 120.585 333.099C121.022 333.099 121.301 333.02 121.46 332.96L121.221 331.906C121.122 331.926 120.963 331.966 120.704 331.966C120.187 331.966 119.69 331.807 119.69 330.812V326.358H121.321V325.364ZM126.106 333.159C128.174 333.159 129.566 331.588 129.566 329.222C129.566 326.835 128.174 325.264 126.106 325.264C124.038 325.264 122.646 326.835 122.646 329.222C122.646 331.588 124.038 333.159 126.106 333.159ZM126.106 332.105C124.535 332.105 123.819 330.753 123.819 329.222C123.819 327.69 124.535 326.318 126.106 326.318C127.677 326.318 128.393 327.69 128.393 329.222C128.393 330.753 127.677 332.105 126.106 332.105ZM135.454 333H136.587V331.827H136.726C136.985 332.244 137.482 333.159 138.954 333.159C140.863 333.159 142.195 331.628 142.195 329.202C142.195 326.795 140.863 325.264 138.934 325.264C137.442 325.264 136.985 326.179 136.726 326.577H136.627V322.818H135.454V333ZM136.607 329.182C136.607 327.472 137.363 326.318 138.795 326.318C140.286 326.318 141.022 327.571 141.022 329.182C141.022 330.812 140.266 332.105 138.795 332.105C137.383 332.105 136.607 330.912 136.607 329.182ZM147.192 333.159C148.743 333.159 149.876 332.384 150.234 331.23L149.101 330.912C148.802 331.707 148.111 332.105 147.192 332.105C145.814 332.105 144.865 331.215 144.81 329.58H150.354V329.082C150.354 326.239 148.663 325.264 147.072 325.264C145.004 325.264 143.632 326.895 143.632 329.241C143.632 331.588 144.984 333.159 147.192 333.159ZM144.81 328.565C144.89 327.377 145.73 326.318 147.072 326.318C148.345 326.318 149.16 327.273 149.16 328.565H144.81ZM158.323 333.179C159.655 333.179 160.351 332.463 160.59 331.966H160.65V333H161.823V327.969C161.823 325.543 159.974 325.264 158.999 325.264C157.846 325.264 156.533 325.662 155.937 327.054L157.05 327.452C157.309 326.895 157.92 326.298 159.039 326.298C160.118 326.298 160.65 326.87 160.65 327.849V327.889C160.65 328.456 160.073 328.406 158.681 328.585C157.264 328.769 155.718 329.082 155.718 330.832C155.718 332.324 156.871 333.179 158.323 333.179ZM158.502 332.125C157.567 332.125 156.891 331.707 156.891 330.892C156.891 329.997 157.706 329.719 158.621 329.599C159.118 329.54 160.451 329.401 160.65 329.162V330.236C160.65 331.19 159.894 332.125 158.502 332.125ZM167.902 335.864H169.075V331.827H169.175C169.433 332.244 169.93 333.159 171.402 333.159C173.311 333.159 174.643 331.628 174.643 329.202C174.643 326.795 173.311 325.264 171.382 325.264C169.891 325.264 169.433 326.179 169.175 326.577H169.036V325.364H167.902V335.864ZM169.055 329.182C169.055 327.472 169.811 326.318 171.243 326.318C172.734 326.318 173.47 327.571 173.47 329.182C173.47 330.812 172.714 332.105 171.243 332.105C169.831 332.105 169.055 330.912 169.055 329.182ZM176.433 333H177.607V328.168C177.607 327.134 178.422 326.378 179.536 326.378C179.849 326.378 180.172 326.438 180.251 326.457V325.264C180.117 325.254 179.809 325.244 179.635 325.244C178.72 325.244 177.925 325.761 177.646 326.517H177.567V325.364H176.433V333ZM184.512 333.159C186.58 333.159 187.972 331.588 187.972 329.222C187.972 326.835 186.58 325.264 184.512 325.264C182.444 325.264 181.052 326.835 181.052 329.222C181.052 331.588 182.444 333.159 184.512 333.159ZM184.512 332.105C182.941 332.105 182.225 330.753 182.225 329.222C182.225 327.69 182.941 326.318 184.512 326.318C186.083 326.318 186.799 327.69 186.799 329.222C186.799 330.753 186.083 332.105 184.512 332.105ZM192.846 336.023C194.675 336.023 196.147 335.188 196.147 333.219V325.364H195.013V326.577H194.894C194.635 326.179 194.158 325.264 192.667 325.264C190.738 325.264 189.405 326.795 189.405 329.142C189.405 331.528 190.797 332.881 192.647 332.881C194.138 332.881 194.616 332.006 194.874 331.588H194.974V333.139C194.974 334.412 194.079 334.989 192.846 334.989C191.459 334.989 190.971 334.258 190.658 333.835L189.724 334.491C190.201 335.292 191.14 336.023 192.846 336.023ZM192.806 331.827C191.334 331.827 190.579 330.713 190.579 329.122C190.579 327.571 191.314 326.318 192.806 326.318C194.238 326.318 194.993 327.472 194.993 329.122C194.993 330.812 194.218 331.827 192.806 331.827ZM198.295 333H199.468V328.168C199.468 327.134 200.283 326.378 201.397 326.378C201.71 326.378 202.033 326.438 202.113 326.457V325.264C201.979 325.254 201.67 325.244 201.496 325.244C200.581 325.244 199.786 325.761 199.508 326.517H199.428V325.364H198.295V333ZM205.751 333.179C207.083 333.179 207.779 332.463 208.018 331.966H208.077V333H209.251V327.969C209.251 325.543 207.401 325.264 206.427 325.264C205.273 325.264 203.961 325.662 203.364 327.054L204.478 327.452C204.737 326.895 205.348 326.298 206.467 326.298C207.545 326.298 208.077 326.87 208.077 327.849V327.889C208.077 328.456 207.501 328.406 206.109 328.585C204.692 328.769 203.146 329.082 203.146 330.832C203.146 332.324 204.299 333.179 205.751 333.179ZM205.93 332.125C204.995 332.125 204.319 331.707 204.319 330.892C204.319 329.997 205.134 329.719 206.049 329.599C206.546 329.54 207.879 329.401 208.077 329.162V330.236C208.077 331.19 207.322 332.125 205.93 332.125ZM211.392 333H212.566V328.227C212.566 327.109 213.381 326.318 214.296 326.318C215.186 326.318 215.807 326.9 215.807 327.77V333H217V328.028C217 327.044 217.617 326.318 218.691 326.318C219.526 326.318 220.242 326.761 220.242 327.889V333H221.415V327.889C221.415 326.094 220.45 325.264 219.088 325.264C217.994 325.264 217.194 325.766 216.801 326.557H216.722C216.344 325.741 215.678 325.264 214.673 325.264C213.679 325.264 212.943 325.741 212.625 326.557H212.526V325.364H211.392V333ZM223.56 333H224.733V328.227C224.733 327.109 225.549 326.318 226.464 326.318C227.354 326.318 227.975 326.9 227.975 327.77V333H229.168V328.028C229.168 327.044 229.785 326.318 230.858 326.318C231.694 326.318 232.41 326.761 232.41 327.889V333H233.583V327.889C233.583 326.094 232.618 325.264 231.256 325.264C230.162 325.264 229.362 325.766 228.969 326.557H228.89C228.512 325.741 227.846 325.264 226.841 325.264C225.847 325.264 225.111 325.741 224.793 326.557H224.694V325.364H223.56V333ZM238.93 333.159C240.481 333.159 241.615 332.384 241.972 331.23L240.839 330.912C240.541 331.707 239.85 332.105 238.93 332.105C237.553 332.105 236.603 331.215 236.548 329.58H242.092V329.082C242.092 326.239 240.401 325.264 238.811 325.264C236.742 325.264 235.37 326.895 235.37 329.241C235.37 331.588 236.722 333.159 238.93 333.159ZM236.548 328.565C236.628 327.377 237.468 326.318 238.811 326.318C240.083 326.318 240.899 327.273 240.899 328.565H236.548ZM243.877 333H245.05V328.168C245.05 327.134 245.865 326.378 246.979 326.378C247.292 326.378 247.615 326.438 247.695 326.457V325.264C247.561 325.254 247.252 325.244 247.078 325.244C246.164 325.244 245.368 325.761 245.09 326.517H245.01V325.364H243.877V333ZM249.961 331.608H248.688L248.628 332.165C248.484 333.512 248.201 334.854 248.071 335.486H248.966C249.205 334.81 249.712 333.278 249.881 332.145L249.961 331.608ZM257.802 333H258.955L260.626 327.134H260.745L262.416 333H263.569L265.896 325.364H264.663L263.012 331.19H262.933L261.322 325.364H260.069L258.438 331.21H258.359L256.708 325.364H255.475L257.802 333ZM270.289 333.159C272.358 333.159 273.75 331.588 273.75 329.222C273.75 326.835 272.358 325.264 270.289 325.264C268.221 325.264 266.829 326.835 266.829 329.222C266.829 331.588 268.221 333.159 270.289 333.159ZM270.289 332.105C268.718 332.105 268.002 330.753 268.002 329.222C268.002 327.69 268.718 326.318 270.289 326.318C271.86 326.318 272.576 327.69 272.576 329.222C272.576 330.753 271.86 332.105 270.289 332.105ZM275.541 333H276.714V328.168C276.714 327.134 277.529 326.378 278.643 326.378C278.956 326.378 279.279 326.438 279.359 326.457V325.264C279.225 325.254 278.916 325.244 278.742 325.244C277.828 325.244 277.032 325.761 276.754 326.517H276.674V325.364H275.541V333ZM280.75 333H281.923V330.141L282.743 329.381L285.602 333H287.093L283.628 328.625L286.855 325.364H285.403L282.062 328.764H281.923V322.818H280.75V333ZM294.55 333.179C295.882 333.179 296.578 332.463 296.817 331.966H296.876V333H298.05V327.969C298.05 325.543 296.2 325.264 295.226 325.264C294.072 325.264 292.76 325.662 292.163 327.054L293.277 327.452C293.535 326.895 294.147 326.298 295.265 326.298C296.344 326.298 296.876 326.87 296.876 327.849V327.889C296.876 328.456 296.3 328.406 294.907 328.585C293.491 328.769 291.944 329.082 291.944 330.832C291.944 332.324 293.098 333.179 294.55 333.179ZM294.729 332.125C293.794 332.125 293.118 331.707 293.118 330.892C293.118 329.997 293.933 329.719 294.848 329.599C295.345 329.54 296.677 329.401 296.876 329.162V330.236C296.876 331.19 296.121 332.125 294.729 332.125ZM301.364 328.406C301.364 327.074 302.19 326.318 303.313 326.318C304.402 326.318 305.063 327.029 305.063 328.227V333H306.237V328.148C306.237 326.199 305.197 325.264 303.651 325.264C302.498 325.264 301.782 325.781 301.424 326.557H301.325V325.364H300.191V333H301.364V328.406ZM311.264 333.159C312.736 333.159 313.233 332.244 313.491 331.827H313.631V333H314.764V322.818H313.591V326.577H313.491C313.233 326.179 312.775 325.264 311.284 325.264C309.355 325.264 308.023 326.795 308.023 329.202C308.023 331.628 309.355 333.159 311.264 333.159ZM311.423 332.105C309.952 332.105 309.196 330.812 309.196 329.182C309.196 327.571 309.932 326.318 311.423 326.318C312.855 326.318 313.611 327.472 313.611 329.182C313.611 330.912 312.835 332.105 311.423 332.105ZM321.013 333H322.187V328.227C322.187 327.109 323.002 326.318 323.917 326.318C324.807 326.318 325.428 326.9 325.428 327.77V333H326.621V328.028C326.621 327.044 327.238 326.318 328.312 326.318C329.147 326.318 329.863 326.761 329.863 327.889V333H331.036V327.889C331.036 326.094 330.072 325.264 328.709 325.264C327.616 325.264 326.815 325.766 326.422 326.557H326.343C325.965 325.741 325.299 325.264 324.295 325.264C323.3 325.264 322.564 325.741 322.246 326.557H322.147V325.364H321.013V333ZM335.428 333.179C336.761 333.179 337.457 332.463 337.695 331.966H337.755V333H338.928V327.969C338.928 325.543 337.079 325.264 336.105 325.264C334.951 325.264 333.639 325.662 333.042 327.054L334.156 327.452C334.414 326.895 335.026 326.298 336.144 326.298C337.223 326.298 337.755 326.87 337.755 327.849V327.889C337.755 328.456 337.178 328.406 335.786 328.585C334.369 328.769 332.823 329.082 332.823 330.832C332.823 332.324 333.977 333.179 335.428 333.179ZM335.607 332.125C334.673 332.125 333.997 331.707 333.997 330.892C333.997 329.997 334.812 329.719 335.727 329.599C336.224 329.54 337.556 329.401 337.755 329.162V330.236C337.755 331.19 336.999 332.125 335.607 332.125ZM342.243 328.406C342.243 327.074 343.069 326.318 344.192 326.318C345.281 326.318 345.942 327.029 345.942 328.227V333H347.115V328.148C347.115 326.199 346.076 325.264 344.53 325.264C343.377 325.264 342.661 325.781 342.303 326.557H342.203V325.364H341.07V333H342.243V328.406ZM351.507 333.179C352.839 333.179 353.535 332.463 353.774 331.966H353.833V333H355.007V327.969C355.007 325.543 353.157 325.264 352.183 325.264C351.029 325.264 349.717 325.662 349.12 327.054L350.234 327.452C350.492 326.895 351.104 326.298 352.222 326.298C353.301 326.298 353.833 326.87 353.833 327.849V327.889C353.833 328.456 353.257 328.406 351.865 328.585C350.448 328.769 348.901 329.082 348.901 330.832C348.901 332.324 350.055 333.179 351.507 333.179ZM351.686 332.125C350.751 332.125 350.075 331.707 350.075 330.892C350.075 329.997 350.89 329.719 351.805 329.599C352.302 329.54 353.634 329.401 353.833 329.162V330.236C353.833 331.19 353.078 332.125 351.686 332.125ZM360.23 336.023C362.06 336.023 363.532 335.188 363.532 333.219V325.364H362.398V326.577H362.279C362.02 326.179 361.543 325.264 360.051 325.264C358.123 325.264 356.79 326.795 356.79 329.142C356.79 331.528 358.182 332.881 360.032 332.881C361.523 332.881 362 332.006 362.259 331.588H362.358V333.139C362.358 334.412 361.463 334.989 360.23 334.989C358.843 334.989 358.356 334.258 358.043 333.835L357.108 334.491C357.586 335.292 358.525 336.023 360.23 336.023ZM360.191 331.827C358.719 331.827 357.963 330.713 357.963 329.122C357.963 327.571 358.699 326.318 360.191 326.318C361.623 326.318 362.378 327.472 362.378 329.122C362.378 330.812 361.603 331.827 360.191 331.827ZM365.679 333H366.853V325.364H365.679V333ZM366.276 324.091C366.733 324.091 367.111 323.733 367.111 323.295C367.111 322.858 366.733 322.5 366.276 322.5C365.819 322.5 365.441 322.858 365.441 323.295C365.441 323.733 365.819 324.091 366.276 324.091ZM370.175 328.406C370.175 327.074 371 326.318 372.124 326.318C373.213 326.318 373.874 327.029 373.874 328.227V333H375.047V328.148C375.047 326.199 374.008 325.264 372.462 325.264C371.308 325.264 370.593 325.781 370.235 326.557H370.135V325.364H369.002V333H370.175V328.406ZM380.273 336.023C382.103 336.023 383.575 335.188 383.575 333.219V325.364H382.441V326.577H382.322C382.063 326.179 381.586 325.264 380.094 325.264C378.165 325.264 376.833 326.795 376.833 329.142C376.833 331.528 378.225 332.881 380.075 332.881C381.566 332.881 382.043 332.006 382.302 331.588H382.401V333.139C382.401 334.412 381.506 334.989 380.273 334.989C378.886 334.989 378.399 334.258 378.086 333.835L377.151 334.491C377.629 335.292 378.568 336.023 380.273 336.023ZM380.234 331.827C378.762 331.827 378.006 330.713 378.006 329.122C378.006 327.571 378.742 326.318 380.234 326.318C381.665 326.318 382.421 327.472 382.421 329.122C382.421 330.812 381.646 331.827 380.234 331.827ZM48.3949 349.364H46.7642V347.534H45.5909V349.364H44.4375V350.358H45.5909V355.131C45.5909 356.463 46.6648 357.099 47.6591 357.099C48.0966 357.099 48.375 357.02 48.5341 356.96L48.2955 355.906C48.196 355.926 48.0369 355.966 47.7784 355.966C47.2614 355.966 46.7642 355.807 46.7642 354.812V350.358H48.3949V349.364ZM50.1598 357H51.3331V349.364H50.1598V357ZM50.7564 348.091C51.2138 348.091 51.5916 347.733 51.5916 347.295C51.5916 346.858 51.2138 346.5 50.7564 346.5C50.299 346.5 49.9212 346.858 49.9212 347.295C49.9212 347.733 50.299 348.091 50.7564 348.091ZM53.4821 357H54.6554V352.227C54.6554 351.109 55.4707 350.318 56.3855 350.318C57.2754 350.318 57.8968 350.9 57.8968 351.77V357H59.09V352.028C59.09 351.044 59.7065 350.318 60.7804 350.318C61.6156 350.318 62.3315 350.761 62.3315 351.889V357H63.5048V351.889C63.5048 350.094 62.5403 349.264 61.1781 349.264C60.0843 349.264 59.2839 349.766 58.8912 350.557H58.8116C58.4338 349.741 57.7676 349.264 56.7633 349.264C55.769 349.264 55.0332 349.741 54.715 350.557H54.6156V349.364H53.4821V357ZM68.8517 357.159C70.4029 357.159 71.5364 356.384 71.8944 355.23L70.7608 354.912C70.4625 355.707 69.7715 356.105 68.8517 356.105C67.4746 356.105 66.525 355.215 66.4703 353.58H72.0137V353.082C72.0137 350.239 70.3233 349.264 68.7324 349.264C66.6642 349.264 65.2921 350.895 65.2921 353.241C65.2921 355.588 66.6444 357.159 68.8517 357.159ZM66.4703 352.565C66.5499 351.377 67.3901 350.318 68.7324 350.318C70.0051 350.318 70.8205 351.273 70.8205 352.565H66.4703ZM79.4661 357H80.6195L82.29 351.134H82.4093L84.0797 357H85.2331L87.5598 349.364H86.3269L84.6763 355.19H84.5968L82.986 349.364H81.7331L80.1025 355.21H80.0229L78.3723 349.364H77.1394L79.4661 357ZM89.111 357H90.2843V349.364H89.111V357ZM89.7076 348.091C90.165 348.091 90.5428 347.733 90.5428 347.295C90.5428 346.858 90.165 346.5 89.7076 346.5C89.2502 346.5 88.8723 346.858 88.8723 347.295C88.8723 347.733 89.2502 348.091 89.7076 348.091ZM95.7543 349.364H94.1236V347.534H92.9503V349.364H91.7969V350.358H92.9503V355.131C92.9503 356.463 94.0241 357.099 95.0185 357.099C95.456 357.099 95.7344 357.02 95.8935 356.96L95.6548 355.906C95.5554 355.926 95.3963 355.966 95.1378 355.966C94.6207 355.966 94.1236 355.807 94.1236 354.812V350.358H95.7543V349.364ZM98.8565 352.406C98.8565 351.074 99.7067 350.318 100.865 350.318C101.969 350.318 102.635 351.014 102.635 352.227V357H103.808V352.148C103.808 350.184 102.764 349.264 101.203 349.264C100 349.264 99.3139 349.766 98.956 350.557H98.8565V346.818H97.6832V357H98.8565V352.406ZM109.892 359.864H111.066V355.827H111.165C111.423 356.244 111.921 357.159 113.392 357.159C115.301 357.159 116.634 355.628 116.634 353.202C116.634 350.795 115.301 349.264 113.372 349.264C111.881 349.264 111.423 350.179 111.165 350.577H111.026V349.364H109.892V359.864ZM111.046 353.182C111.046 351.472 111.801 350.318 113.233 350.318C114.725 350.318 115.46 351.571 115.46 353.182C115.46 354.812 114.705 356.105 113.233 356.105C111.821 356.105 111.046 354.912 111.046 353.182ZM121.526 357.159C123.594 357.159 124.986 355.588 124.986 353.222C124.986 350.835 123.594 349.264 121.526 349.264C119.458 349.264 118.066 350.835 118.066 353.222C118.066 355.588 119.458 357.159 121.526 357.159ZM121.526 356.105C119.955 356.105 119.239 354.753 119.239 353.222C119.239 351.69 119.955 350.318 121.526 350.318C123.097 350.318 123.813 351.69 123.813 353.222C123.813 354.753 123.097 356.105 121.526 356.105ZM126.777 357H127.95V352.227C127.95 351.109 128.766 350.318 129.68 350.318C130.57 350.318 131.192 350.9 131.192 351.77V357H132.385V352.028C132.385 351.044 133.001 350.318 134.075 350.318C134.911 350.318 135.626 350.761 135.626 351.889V357H136.8V351.889C136.8 350.094 135.835 349.264 134.473 349.264C133.379 349.264 132.579 349.766 132.186 350.557H132.107C131.729 349.741 131.062 349.264 130.058 349.264C129.064 349.264 128.328 349.741 128.01 350.557H127.911V349.364H126.777V357ZM142.047 357.159C144.115 357.159 145.507 355.588 145.507 353.222C145.507 350.835 144.115 349.264 142.047 349.264C139.979 349.264 138.587 350.835 138.587 353.222C138.587 355.588 139.979 357.159 142.047 357.159ZM142.047 356.105C140.476 356.105 139.76 354.753 139.76 353.222C139.76 351.69 140.476 350.318 142.047 350.318C143.618 350.318 144.334 351.69 144.334 353.222C144.334 354.753 143.618 356.105 142.047 356.105ZM150.182 357.159C151.654 357.159 152.151 356.244 152.409 355.827H152.548V357H153.682V346.818H152.509V350.577H152.409C152.151 350.179 151.693 349.264 150.202 349.264C148.273 349.264 146.941 350.795 146.941 353.202C146.941 355.628 148.273 357.159 150.182 357.159ZM150.341 356.105C148.869 356.105 148.114 354.812 148.114 353.182C148.114 351.571 148.85 350.318 150.341 350.318C151.773 350.318 152.529 351.472 152.529 353.182C152.529 354.912 151.753 356.105 150.341 356.105ZM159.096 357.159C161.164 357.159 162.556 355.588 162.556 353.222C162.556 350.835 161.164 349.264 159.096 349.264C157.028 349.264 155.636 350.835 155.636 353.222C155.636 355.588 157.028 357.159 159.096 357.159ZM159.096 356.105C157.525 356.105 156.809 354.753 156.809 353.222C156.809 351.69 157.525 350.318 159.096 350.318C160.667 350.318 161.383 351.69 161.383 353.222C161.383 354.753 160.667 356.105 159.096 356.105ZM164.347 357H165.521V352.168C165.521 351.134 166.336 350.378 167.45 350.378C167.763 350.378 168.086 350.438 168.165 350.457V349.264C168.031 349.254 167.723 349.244 167.549 349.244C166.634 349.244 165.839 349.761 165.56 350.517H165.481V349.364H164.347V357ZM172.426 357.159C174.494 357.159 175.886 355.588 175.886 353.222C175.886 350.835 174.494 349.264 172.426 349.264C170.358 349.264 168.966 350.835 168.966 353.222C168.966 355.588 170.358 357.159 172.426 357.159ZM172.426 356.105C170.855 356.105 170.139 354.753 170.139 353.222C170.139 351.69 170.855 350.318 172.426 350.318C173.997 350.318 174.713 351.69 174.713 353.222C174.713 354.753 173.997 356.105 172.426 356.105ZM178.532 357.08C179.025 357.08 179.427 356.677 179.427 356.185C179.427 355.692 179.025 355.29 178.532 355.29C178.04 355.29 177.638 355.692 177.638 356.185C177.638 356.677 178.04 357.08 178.532 357.08ZM182.388 357.08C182.88 357.08 183.283 356.677 183.283 356.185C183.283 355.692 182.88 355.29 182.388 355.29C181.896 355.29 181.493 355.692 181.493 356.185C181.493 356.677 181.896 357.08 182.388 357.08ZM186.243 357.08C186.736 357.08 187.138 356.677 187.138 356.185C187.138 355.692 186.736 355.29 186.243 355.29C185.751 355.29 185.349 355.692 185.349 356.185C185.349 356.677 185.751 357.08 186.243 357.08ZM193.599 352.705C193.599 355.21 194.275 357.298 195.488 359.068H196.522C195.568 357.756 194.812 355.071 194.812 352.705C194.812 350.338 195.568 347.653 196.522 346.341H195.488C194.275 348.111 193.599 350.199 193.599 352.705ZM268.052 352.705C268.052 350.199 267.376 348.111 266.163 346.341H265.129C266.083 347.653 266.839 350.338 266.839 352.705C266.839 355.071 266.083 357.756 265.129 359.068H266.163C267.376 357.298 268.052 355.21 268.052 352.705Z" fill="#C07E63"/>
<path d="M198.254 357H199.427V352.168C199.427 351.134 200.242 350.378 201.356 350.378C201.669 350.378 201.992 350.438 202.072 350.457V349.264C201.938 349.254 201.629 349.244 201.455 349.244C200.54 349.244 199.745 349.761 199.467 350.517H199.387V349.364H198.254V357ZM206.432 357.159C207.983 357.159 209.116 356.384 209.474 355.23L208.341 354.912C208.043 355.707 207.352 356.105 206.432 356.105C205.055 356.105 204.105 355.215 204.05 353.58H209.594V353.082C209.594 350.239 207.903 349.264 206.312 349.264C204.244 349.264 202.872 350.895 202.872 353.241C202.872 355.588 204.224 357.159 206.432 357.159ZM204.05 352.565C204.13 351.377 204.97 350.318 206.312 350.318C207.585 350.318 208.401 351.273 208.401 352.565H204.05ZM213.626 357.179C214.958 357.179 215.654 356.463 215.893 355.966H215.952V357H217.126V351.969C217.126 349.543 215.276 349.264 214.302 349.264C213.148 349.264 211.836 349.662 211.239 351.054L212.353 351.452C212.612 350.895 213.223 350.298 214.342 350.298C215.42 350.298 215.952 350.87 215.952 351.849V351.889C215.952 352.456 215.376 352.406 213.984 352.585C212.567 352.769 211.021 353.082 211.021 354.832C211.021 356.324 212.174 357.179 213.626 357.179ZM213.805 356.125C212.87 356.125 212.194 355.707 212.194 354.892C212.194 353.997 213.009 353.719 213.924 353.599C214.421 353.54 215.754 353.401 215.952 353.162V354.236C215.952 355.19 215.197 356.125 213.805 356.125ZM222.151 357.159C223.622 357.159 224.119 356.244 224.378 355.827H224.517V357H225.651V346.818H224.477V350.577H224.378C224.119 350.179 223.662 349.264 222.171 349.264C220.242 349.264 218.909 350.795 218.909 353.202C218.909 355.628 220.242 357.159 222.151 357.159ZM222.31 356.105C220.838 356.105 220.083 354.812 220.083 353.182C220.083 351.571 220.818 350.318 222.31 350.318C223.742 350.318 224.497 351.472 224.497 353.182C224.497 354.912 223.722 356.105 222.31 356.105ZM231.9 357H233.073V352.227C233.073 351.109 233.889 350.318 234.803 350.318C235.693 350.318 236.315 350.9 236.315 351.77V357H237.508V352.028C237.508 351.044 238.124 350.318 239.198 350.318C240.034 350.318 240.749 350.761 240.749 351.889V357H241.923V351.889C241.923 350.094 240.958 349.264 239.596 349.264C238.502 349.264 237.702 349.766 237.309 350.557H237.23C236.852 349.741 236.186 349.264 235.181 349.264C234.187 349.264 233.451 349.741 233.133 350.557H233.034V349.364H231.9V357ZM247.17 357.159C249.238 357.159 250.631 355.588 250.631 353.222C250.631 350.835 249.238 349.264 247.17 349.264C245.102 349.264 243.71 350.835 243.71 353.222C243.71 355.588 245.102 357.159 247.17 357.159ZM247.17 356.105C245.599 356.105 244.883 354.753 244.883 353.222C244.883 351.69 245.599 350.318 247.17 350.318C248.741 350.318 249.457 351.69 249.457 353.222C249.457 354.753 248.741 356.105 247.17 356.105ZM252.422 357H253.595V352.168C253.595 351.134 254.41 350.378 255.524 350.378C255.837 350.378 256.16 350.438 256.24 350.457V349.264C256.105 349.254 255.797 349.244 255.623 349.244C254.708 349.244 253.913 349.761 253.635 350.517H253.555V349.364H252.422V357ZM260.6 357.159C262.151 357.159 263.284 356.384 263.642 355.23L262.509 354.912C262.211 355.707 261.52 356.105 260.6 356.105C259.223 356.105 258.273 355.215 258.218 353.58H263.762V353.082C263.762 350.239 262.071 349.264 260.48 349.264C258.412 349.264 257.04 350.895 257.04 353.241C257.04 355.588 258.392 357.159 260.6 357.159ZM258.218 352.565C258.298 351.377 259.138 350.318 260.48 350.318C261.753 350.318 262.569 351.273 262.569 352.565H258.218Z" fill="#0078FF"/>
<path d="M46.0085 293H49.6974V286.119H53.5952C58.2983 286.119 60.8239 283.295 60.8239 279.378C60.8239 275.49 58.3281 272.636 53.6449 272.636H46.0085V293ZM49.6974 283.087V275.719H53.0781C55.8423 275.719 57.0653 277.21 57.0653 279.378C57.0653 281.545 55.8423 283.087 53.098 283.087H49.6974ZM70.3121 293.298C74.7866 293.298 77.6303 290.146 77.6303 285.423C77.6303 280.69 74.7866 277.528 70.3121 277.528C65.8377 277.528 62.994 280.69 62.994 285.423C62.994 290.146 65.8377 293.298 70.3121 293.298ZM70.332 290.415C67.8562 290.415 66.6431 288.207 66.6431 285.413C66.6431 282.619 67.8562 280.382 70.332 280.382C72.7681 280.382 73.9812 282.619 73.9812 285.413C73.9812 288.207 72.7681 290.415 70.332 290.415ZM80.6854 293H84.2848V283.713C84.2848 281.834 85.5376 280.561 87.0888 280.561C88.6101 280.561 89.6541 281.585 89.6541 283.156V293H93.1839V283.474C93.1839 281.754 94.2081 280.561 95.9482 280.561C97.3999 280.561 98.5533 281.416 98.5533 283.305V293H102.163V282.749C102.163 279.338 100.194 277.528 97.3899 277.528C95.1726 277.528 93.4822 278.622 92.8061 280.322H92.647C92.0604 278.592 90.5788 277.528 88.5206 277.528C86.4723 277.528 84.9411 278.582 84.3047 280.322H84.1257V277.727H80.6854V293ZM112.476 293.298C116.951 293.298 119.794 290.146 119.794 285.423C119.794 280.69 116.951 277.528 112.476 277.528C108.002 277.528 105.158 280.69 105.158 285.423C105.158 290.146 108.002 293.298 112.476 293.298ZM112.496 290.415C110.02 290.415 108.807 288.207 108.807 285.413C108.807 282.619 110.02 280.382 112.496 280.382C114.932 280.382 116.145 282.619 116.145 285.413C116.145 288.207 114.932 290.415 112.496 290.415ZM128.517 293.268C131.142 293.268 132.325 291.707 132.892 290.594H133.111V293H136.651V272.636H133.041V280.253H132.892C132.345 279.149 131.222 277.528 128.527 277.528C124.997 277.528 122.223 280.293 122.223 285.384C122.223 290.415 124.918 293.268 128.517 293.268ZM129.521 290.315C127.145 290.315 125.892 288.227 125.892 285.364C125.892 282.52 127.125 280.482 129.521 280.482C131.838 280.482 133.111 282.401 133.111 285.364C133.111 288.327 131.818 290.315 129.521 290.315ZM147.148 293.298C151.623 293.298 154.466 290.146 154.466 285.423C154.466 280.69 151.623 277.528 147.148 277.528C142.674 277.528 139.83 280.69 139.83 285.423C139.83 290.146 142.674 293.298 147.148 293.298ZM147.168 290.415C144.692 290.415 143.479 288.207 143.479 285.413C143.479 282.619 144.692 280.382 147.168 280.382C149.604 280.382 150.817 282.619 150.817 285.413C150.817 288.207 149.604 290.415 147.168 290.415ZM157.521 293H161.121V284.021C161.121 282.082 162.582 280.71 164.561 280.71C165.168 280.71 165.923 280.82 166.232 280.919V277.608C165.903 277.548 165.337 277.509 164.939 277.509C163.189 277.509 161.727 278.503 161.17 280.273H161.011V277.727H157.521V293ZM174.656 293.298C179.13 293.298 181.974 290.146 181.974 285.423C181.974 280.69 179.13 277.528 174.656 277.528C170.181 277.528 167.338 280.69 167.338 285.423C167.338 290.146 170.181 293.298 174.656 293.298ZM174.676 290.415C172.2 290.415 170.987 288.207 170.987 285.413C170.987 282.619 172.2 280.382 174.676 280.382C177.112 280.382 178.325 282.619 178.325 285.413C178.325 288.207 177.112 290.415 174.676 290.415ZM192.134 272.636V293H195.673V278.98H195.862L201.49 292.94H204.135L209.763 279.01H209.952V293H213.491V272.636H208.977L202.932 287.392H202.693L196.648 272.636H192.134ZM224.111 293.298C227.67 293.298 230.116 291.558 230.753 288.903L227.392 288.526C226.905 289.818 225.712 290.494 224.161 290.494C221.834 290.494 220.293 288.963 220.263 286.348H230.902V285.244C230.902 279.885 227.68 277.528 223.922 277.528C219.547 277.528 216.693 280.74 216.693 285.453C216.693 290.246 219.507 293.298 224.111 293.298ZM220.273 283.922C220.382 281.973 221.824 280.332 223.972 280.332C226.04 280.332 227.432 281.844 227.452 283.922H220.273ZM241.574 277.727H238.561V274.068H234.961V277.727H232.794V280.511H234.961V289.003C234.941 291.876 237.029 293.288 239.734 293.209C240.758 293.179 241.464 292.98 241.852 292.851L241.245 290.037C241.047 290.087 240.639 290.176 240.191 290.176C239.287 290.176 238.561 289.858 238.561 288.406V280.511H241.574V277.727ZM248.511 284.051C248.511 281.844 249.884 280.571 251.812 280.571C253.702 280.571 254.815 281.774 254.815 283.832V293H258.415V283.276C258.415 279.587 256.327 277.528 253.155 277.528C250.808 277.528 249.317 278.592 248.611 280.322H248.432V272.636H244.912V293H248.511V284.051ZM268.746 293.298C273.22 293.298 276.064 290.146 276.064 285.423C276.064 280.69 273.22 277.528 268.746 277.528C264.271 277.528 261.428 280.69 261.428 285.423C261.428 290.146 264.271 293.298 268.746 293.298ZM268.766 290.415C266.29 290.415 265.077 288.207 265.077 285.413C265.077 282.619 266.29 280.382 268.766 280.382C271.202 280.382 272.415 282.619 272.415 285.413C272.415 288.207 271.202 290.415 268.766 290.415ZM284.787 293.268C287.412 293.268 288.595 291.707 289.162 290.594H289.38V293H292.92V272.636H289.311V280.253H289.162C288.615 279.149 287.491 277.528 284.797 277.528C281.267 277.528 278.493 280.293 278.493 285.384C278.493 290.415 281.187 293.268 284.787 293.268ZM285.791 290.315C283.414 290.315 282.162 288.227 282.162 285.364C282.162 282.52 283.395 280.482 285.791 280.482C288.108 280.482 289.38 282.401 289.38 285.364C289.38 288.327 288.088 290.315 285.791 290.315Z" fill="#111827"/>
<defs>
<linearGradient id="paint0_linear_1_64" x1="10" y1="13.5" x2="440.5" y2="397" gradientUnits="userSpaceOnUse">
<stop stop-color="#FFEDD5"/>
<stop offset="1" stop-color="#FED7AA"/>
</linearGradient>
</defs>
</svg>
